<?xml version="1.0" standalone="no"?>
<!DOCTYPE svg PUBLIC "-//W3C//DTD SVG 20010904//EN"
 "http://www.w3.org/TR/2001/REC-SVG-20010904/DTD/svg10.dtd">
<svg version="1.0" xmlns="http://www.w3.org/2000/svg"
 width="2858.000000pt" height="1558.000000pt" viewBox="0 0 2858.000000 1558.000000"
 preserveAspectRatio="xMidYMid meet">

<g transform="translate(0.000000,1558.000000) scale(0.100000,-0.100000)"
fill="#000000" stroke="none">
<path d="M0 7790 l0 -7790 3250 0 3250 0 0 7330 0 7330 11000 0 11000 0 0 460
0 460 -14250 0 -14250 0 0 -7790z m20087 7510 c50 -30 80 -103 64 -156 -5 -16
-12 -37 -16 -46 -5 -12 -2 -18 6 -19 22 -1 82 -77 75 -94 -13 -35 -38 -29 -82
21 -34 39 -45 47 -55 37 -7 -7 -33 -13 -58 -13 -54 0 -102 30 -125 77 -60 127
75 264 191 193z m-10947 -63 c0 -32 1 -32 39 -29 60 6 81 -21 81 -103 0 -58
-2 -65 -20 -65 -18 0 -20 7 -20 65 0 61 -2 65 -25 71 -40 10 -55 -11 -55 -77
0 -52 -2 -59 -20 -59 -19 0 -20 7 -20 108 0 60 3 112 7 115 17 18 33 5 33 -26z
m310 25 c0 -4 -10 -16 -22 -27 l-23 -20 23 -3 c27 -4 30 -32 2 -32 -18 0 -20
-7 -20 -70 0 -56 -3 -70 -15 -70 -12 0 -15 14 -15 70 0 40 -4 70 -10 70 -5 0
-10 7 -10 15 0 8 5 15 10 15 6 0 10 8 10 18 0 10 5 23 12 30 13 13 58 17 58 4z
m620 -26 c0 -34 0 -34 40 -29 62 9 80 -13 80 -99 0 -54 -3 -68 -15 -68 -12 0
-15 13 -15 59 0 66 -15 87 -54 77 -25 -6 -36 -37 -36 -102 0 -24 -5 -34 -15
-34 -12 0 -15 19 -15 115 0 96 3 115 15 115 10 0 15 -10 15 -34z m970 -81 c0
-108 -1 -115 -20 -115 -19 0 -20 7 -20 108 0 110 3 122 27 122 10 0 13 -26 13
-115z m-2673 83 c16 -13 17 -38 3 -38 -6 0 -21 7 -34 15 -29 20 -58 10 -54
-19 2 -14 14 -25 36 -32 69 -22 91 -65 52 -104 -37 -37 -130 -18 -130 27 0 18
36 17 44 -2 7 -20 55 -19 62 0 8 20 -11 42 -44 50 -75 19 -83 91 -12 118 19 7
61 -1 77 -15z m182 -45 c11 -10 24 -33 27 -50 l7 -33 -67 0 c-66 0 -77 -5 -54
-28 17 -17 53 -15 68 3 15 18 40 20 40 3 0 -27 -34 -48 -76 -48 -52 0 -84 33
-84 87 0 69 86 109 139 66z m172 7 c13 -7 19 -7 19 0 0 5 7 10 15 10 12 0 15
-16 15 -85 0 -69 -3 -85 -15 -85 -8 0 -15 5 -15 12 0 9 -3 9 -12 0 -20 -20
-79 -14 -105 10 -31 29 -32 92 -1 125 23 25 66 30 99 13z m179 -5 c0 -8 -9
-17 -21 -20 -25 -8 -39 -43 -39 -96 0 -28 -4 -39 -15 -39 -12 0 -15 16 -15 83
l0 84 45 1 c31 0 45 -4 45 -13z m148 -1 c24 -17 30 -44 8 -44 -7 0 -19 7 -26
15 -15 18 -51 20 -68 3 -7 -7 -12 -26 -12 -43 0 -17 5 -36 12 -43 17 -17 53
-15 68 3 15 18 40 20 40 3 0 -47 -100 -67 -136 -27 -29 32 -26 105 5 130 28
23 78 25 109 3z m562 -4 c27 -27 35 -65 20 -101 -15 -35 -37 -49 -80 -49 -45
0 -67 15 -79 53 -13 38 -7 62 22 95 27 29 89 30 117 2z m90 8 c0 -9 3 -9 12 0
14 14 48 16 48 2 0 -5 -10 -15 -22 -21 -33 -17 -38 -28 -38 -86 0 -40 -4 -53
-15 -53 -12 0 -15 16 -15 85 0 69 3 85 15 85 8 0 15 -5 15 -12z m290 -8 c11
-11 20 -24 20 -30 0 -16 -36 -12 -50 5 -34 40 -91 -15 -71 -67 8 -22 17 -28
41 -28 18 0 33 6 36 15 7 17 44 21 44 5 0 -5 -9 -19 -20 -30 -28 -28 -93 -27
-120 2 -28 30 -27 94 2 125 28 30 89 32 118 3z m356 9 c5 -8 9 -7 14 1 4 7 15
10 24 7 13 -5 16 -22 16 -87 0 -73 -2 -80 -20 -80 -11 0 -20 5 -20 12 0 9 -3
9 -12 0 -20 -20 -83 -15 -104 9 -29 32 -26 105 5 130 25 21 86 26 97 8z m224
-9 c16 -16 20 -34 20 -85 0 -58 -2 -65 -20 -65 -18 0 -20 7 -20 65 0 61 -2 65
-25 71 -40 10 -55 -11 -55 -77 0 -52 -2 -59 -20 -59 -18 0 -20 7 -20 84 l0 84
60 1 c48 0 65 -4 80 -19z m90 8 c0 -9 3 -9 12 0 21 21 75 15 92 -10 22 -31 22
-148 1 -148 -11 0 -15 12 -15 51 0 63 -13 89 -45 89 -32 0 -45 -26 -45 -89 0
-39 -4 -51 -15 -51 -12 0 -15 16 -15 85 0 69 3 85 15 85 8 0 15 -5 15 -12z
m289 -5 c11 -10 24 -33 27 -50 l7 -33 -67 0 c-66 0 -77 -5 -54 -28 17 -17 53
-15 68 3 15 18 40 20 40 3 0 -27 -34 -48 -76 -48 -52 0 -84 33 -84 87 0 69 86
109 139 66z m232 7 c22 -12 26 -50 5 -50 -8 0 -17 7 -20 16 -3 9 -15 14 -28
12 -36 -5 -31 -24 11 -40 50 -20 66 -47 45 -76 -11 -16 -26 -22 -51 -22 -34 0
-73 22 -73 42 0 12 27 10 49 -4 20 -12 51 -5 51 11 0 6 -18 15 -40 21 -51 14
-68 42 -45 76 17 26 61 32 96 14z m-10693 -932 l3 -118 44 0 c41 0 45 -2 45
-25 0 -25 -1 -25 -80 -25 l-80 0 0 138 c0 76 3 142 7 146 4 4 19 6 33 4 l25
-3 3 -117z m283 52 c13 -8 19 -7 19 0 0 7 14 10 33 8 l32 -3 3 -112 3 -113
-36 0 c-19 0 -35 5 -35 11 0 8 -4 8 -12 2 -39 -31 -111 -16 -142 28 -32 46
-13 152 31 178 23 14 79 14 104 1z m209 3 c0 -5 9 -19 19 -32 l18 -24 19 32
c15 25 25 31 51 31 18 0 33 -2 33 -5 0 -2 -15 -29 -34 -58 l-35 -54 35 -51
c19 -28 34 -54 34 -57 0 -3 -16 -5 -35 -5 -26 0 -39 6 -51 25 -9 14 -20 25
-25 25 -5 0 -15 -11 -21 -25 -9 -19 -19 -25 -45 -25 -18 0 -33 3 -33 8 0 4 14
27 30 52 16 25 30 49 30 53 0 5 -13 28 -30 52 -16 24 -30 48 -30 54 0 12 70
15 70 4z m438 -104 c34 39 39 42 51 27 12 -14 8 -22 -30 -65 -24 -27 -48 -51
-54 -53 -5 -3 -32 19 -59 49 -42 46 -46 55 -35 69 12 15 18 12 51 -27 l38 -44
38 44z m-903 -389 c50 -11 85 -50 85 -95 0 -79 -41 -115 -130 -115 l-50 0 0
103 c0 57 3 107 7 110 9 9 40 8 88 -3z m915 -78 c0 -42 4 -82 8 -88 14 -20 45
-25 68 -9 21 13 24 24 26 97 4 107 22 108 26 2 2 -69 0 -84 -18 -107 -28 -35
-89 -38 -120 -5 -17 18 -20 35 -20 103 0 45 3 85 6 88 16 16 24 -10 24 -81z
m-665 13 c14 -13 25 -36 25 -50 0 -24 -2 -25 -66 -25 -57 0 -65 -2 -62 -17 2
-10 15 -22 30 -27 23 -8 32 -6 51 12 26 25 37 28 37 10 0 -43 -83 -64 -127
-33 -30 21 -39 74 -19 113 18 34 28 40 74 41 22 1 41 -7 57 -24z m176 9 c14
-13 18 -13 29 1 18 22 73 19 95 -5 11 -12 19 -42 22 -85 5 -56 3 -65 -11 -65
-13 0 -16 11 -16 55 0 62 -25 100 -57 88 -28 -10 -33 -23 -33 -85 0 -45 -3
-58 -15 -58 -12 0 -15 13 -15 55 0 62 -25 100 -57 88 -28 -10 -33 -23 -33 -85
0 -45 -3 -58 -15 -58 -12 0 -15 16 -15 83 l0 84 52 1 c34 1 58 -4 69 -14z
m317 -4 c29 -27 37 -64 22 -101 -15 -36 -37 -49 -84 -49 -51 0 -76 28 -76 84
0 36 5 48 26 65 34 27 84 27 112 1z m446 -2 c20 -28 3 -51 -17 -24 -8 11 -23
17 -38 14 -33 -4 -29 -20 12 -40 62 -31 73 -52 43 -82 -30 -30 -114 -12 -114
25 0 5 7 9 15 9 8 0 15 -4 15 -9 0 -13 30 -22 51 -16 32 11 21 34 -22 47 -52
15 -71 48 -44 78 25 28 79 27 99 -2z m165 12 c23 -12 47 -68 35 -80 -5 -5 -38
-10 -74 -12 l-65 -3 23 -22 c27 -28 46 -29 72 -3 36 36 57 16 23 -22 -11 -12
-30 -18 -59 -18 -52 0 -84 33 -84 87 0 63 72 104 129 73z m151 -3 c0 -7 -10
-17 -22 -22 -20 -9 -23 -19 -26 -72 -2 -47 -7 -63 -17 -63 -12 0 -15 17 -15
84 l0 84 40 0 c25 1 40 -4 40 -11z m3758 -1187 l-3 -80 78 0 c62 0 77 -3 77
-15 0 -12 -15 -15 -77 -15 l-78 0 3 -75 4 -75 -32 0 -32 0 4 75 3 75 -77 0
c-68 0 -78 2 -78 18 0 15 9 17 77 14 l78 -3 -3 80 -4 81 32 0 32 0 -4 -80z
m-4538 -49 l0 -38 49 5 c40 3 52 1 70 -17 18 -18 21 -33 21 -96 0 -60 -3 -75
-15 -75 -11 0 -15 13 -15 53 0 66 -17 101 -51 105 -37 4 -51 -19 -57 -93 -3
-46 -9 -65 -18 -65 -11 0 -14 27 -14 130 0 109 2 130 15 130 11 0 15 -11 15
-39z m1080 -91 c0 -109 -2 -130 -15 -130 -13 0 -15 21 -15 130 0 109 2 130 15
130 13 0 15 -21 15 -130z m-1225 110 c19 0 75 -49 75 -66 0 -22 -24 -17 -50
11 -30 32 -84 34 -117 3 -32 -30 -32 -102 -1 -135 30 -32 87 -31 118 2 25 27
50 33 50 12 0 -20 -43 -56 -78 -66 -44 -13 -96 3 -126 40 -37 43 -36 115 0
158 25 31 77 53 102 45 8 -2 20 -4 27 -4z m-405 -18 c0 -4 -22 -30 -50 -57
l-50 -49 -50 49 c-27 27 -50 53 -50 57 0 4 45 8 100 8 55 0 100 -4 100 -8z
m868 -44 c9 -9 12 -9 12 0 0 7 9 12 20 12 19 0 20 -7 20 -95 0 -88 -1 -95 -20
-95 -11 0 -20 4 -20 9 0 5 -14 3 -30 -6 -100 -49 -180 105 -91 174 21 16 93
17 109 1z m241 -7 c36 -36 42 -163 9 -169 -16 -3 -18 5 -18 58 0 76 -12 100
-48 100 -42 0 -52 -17 -52 -92 0 -61 -2 -68 -20 -68 -19 0 -20 7 -20 94 l0 94
65 1 c52 1 69 -3 84 -18z m217 -2 c14 -15 20 -40 22 -95 4 -70 3 -74 -17 -74
-19 0 -21 6 -21 61 0 76 -12 99 -50 99 -38 0 -50 -23 -50 -99 0 -54 -2 -61
-20 -61 -19 0 -20 7 -20 94 l0 94 69 1 c57 1 71 -2 87 -20z m212 -1 c11 -13
22 -36 24 -53 l3 -30 -78 -5 -78 -5 16 -22 c21 -30 67 -30 95 -1 16 17 23 19
32 10 10 -10 7 -18 -14 -38 -52 -53 -153 -23 -158 46 -4 52 1 72 25 95 33 34
102 35 133 3z m254 5 c10 -9 18 -22 18 -30 0 -18 -36 -17 -44 2 -8 22 -56 20
-56 -3 0 -12 16 -25 50 -39 44 -19 50 -25 50 -51 0 -32 -12 -46 -48 -55 -42
-10 -102 23 -102 57 0 13 38 5 44 -9 6 -16 61 -21 71 -6 7 13 -22 41 -43 41
-10 0 -28 7 -40 16 -27 19 -30 68 -4 83 27 16 83 13 104 -6z m-52 -753 c0
-118 -2 -140 -15 -140 -13 0 -15 22 -15 140 0 118 2 140 15 140 13 0 15 -22
15 -140z m-958 42 c10 -10 21 -35 25 -55 l6 -37 -87 0 c-47 0 -86 -3 -86 -8 0
-4 7 -18 16 -30 20 -29 74 -30 99 -2 21 23 45 26 45 7 0 -27 -48 -60 -88 -61
-92 -2 -142 90 -92 171 32 53 116 61 162 15z m202 24 c41 -17 56 -55 56 -142
0 -57 -2 -64 -20 -64 -18 0 -20 7 -20 74 0 54 -4 79 -16 90 -17 17 -51 21 -72
8 -17 -12 -32 -68 -32 -124 0 -36 -4 -48 -15 -48 -12 0 -15 18 -15 105 0 87 3
105 15 105 8 0 15 -5 15 -11 0 -8 4 -8 13 -1 6 5 21 12 32 15 11 2 21 5 23 6
1 0 18 -5 36 -13z m268 -24 c10 -10 21 -35 25 -55 l6 -37 -87 0 c-47 0 -86 -3
-86 -8 0 -4 7 -18 16 -30 20 -29 74 -30 99 -2 21 23 45 26 45 7 0 -27 -48 -60
-88 -61 -92 -2 -142 90 -92 171 32 53 116 61 162 15z m168 19 c0 -12 -9 -21
-25 -25 -28 -7 -45 -54 -45 -128 0 -36 -4 -48 -15 -48 -12 0 -15 18 -15 105 0
87 3 105 15 105 8 0 15 -5 15 -11 0 -8 4 -8 13 -1 6 5 21 12 32 15 11 2 21 5
23 6 1 0 2 -8 2 -18z m190 -6 c5 -3 10 -1 10 4 0 6 9 11 20 11 19 0 20 -7 20
-105 0 -98 -1 -105 -20 -105 -11 0 -20 4 -20 9 0 6 -16 3 -36 -5 -68 -29 -133
12 -141 88 -9 95 85 154 167 103z m-1098 -2 c17 -15 18 -15 18 0 0 10 7 17 15
17 13 0 15 -21 15 -130 0 -129 0 -131 -26 -155 -41 -38 -106 -35 -146 6 -22
22 -28 33 -20 41 8 8 20 3 42 -16 31 -26 64 -33 86 -18 17 11 34 48 34 73 0
21 -1 22 -20 4 -12 -11 -35 -18 -62 -18 -59 0 -98 44 -98 109 0 63 40 104 101
104 25 0 50 -7 61 -17z m-490 -26 c-3 -23 0 -27 22 -27 22 0 26 4 26 30 0 24
4 30 21 30 18 0 20 -4 14 -30 -6 -26 -4 -30 14 -30 14 0 21 -6 21 -20 0 -14
-7 -20 -24 -20 -21 0 -24 -6 -28 -40 -3 -36 -1 -40 19 -40 35 0 25 -34 -12
-41 -13 -3 -21 -14 -23 -32 -5 -38 -32 -36 -32 4 0 26 -3 30 -22 27 -17 -2
-24 -11 -26 -30 -2 -20 -9 -28 -22 -28 -16 0 -18 5 -13 30 5 26 3 30 -16 30
-14 0 -21 6 -21 20 0 15 7 20 25 20 17 0 25 6 25 18 0 9 3 27 6 40 5 17 2 22
-14 22 -39 0 -36 34 3 41 13 3 21 14 23 32 3 20 8 27 20 25 12 -2 16 -11 14
-31z m378 -628 c0 -37 2 -40 23 -33 40 14 81 6 105 -21 19 -22 22 -38 22 -106
0 -72 -2 -79 -20 -79 -18 0 -20 7 -20 74 0 82 -13 106 -55 106 -42 0 -55 -24
-55 -106 0 -67 -2 -74 -20 -74 -19 0 -20 7 -20 140 0 133 1 140 20 140 17 0
20 -7 20 -41z m1770 -29 c0 -38 4 -70 9 -70 6 0 22 16 37 35 17 23 35 35 50
35 34 0 30 -10 -21 -60 l-45 -44 45 -46 c25 -25 45 -49 45 -53 0 -4 -11 -7
-24 -7 -15 0 -33 12 -50 35 -15 19 -31 35 -37 35 -5 0 -9 -16 -9 -35 0 -24 -5
-35 -15 -35 -13 0 -15 22 -15 140 0 118 2 140 15 140 12 0 15 -14 15 -70z
m380 26 l0 -44 30 15 c24 12 37 12 62 4 48 -17 57 -37 58 -128 0 -67 -3 -83
-15 -83 -12 0 -15 14 -15 63 0 80 -16 111 -57 115 -46 5 -63 -26 -63 -110 0
-61 -2 -68 -20 -68 -19 0 -20 7 -20 140 0 133 1 140 20 140 17 0 20 -7 20 -44z
m470 -96 c0 -133 -1 -140 -20 -140 -19 0 -20 7 -20 140 0 133 1 140 20 140 19
0 20 -7 20 -140z m-2247 42 c23 -23 32 -88 18 -124 -14 -37 -54 -61 -103 -61
-116 0 -137 181 -25 211 38 10 84 -1 110 -26z m223 13 c18 -11 23 -11 35 0 27
26 91 23 119 -7 17 -18 20 -35 20 -105 0 -67 -3 -83 -15 -83 -12 0 -15 13 -15
59 0 98 -21 130 -75 117 -28 -7 -45 -54 -45 -128 0 -36 -4 -48 -15 -48 -12 0
-15 14 -15 68 0 45 -5 75 -16 90 -15 22 -48 29 -72 14 -17 -12 -32 -68 -32
-124 0 -36 -4 -48 -15 -48 -12 0 -15 18 -15 105 0 87 3 105 15 105 8 0 15 -5
15 -11 0 -8 4 -8 13 -1 28 23 73 22 113 -3z m396 -13 c10 -10 21 -35 25 -55
l6 -37 -87 0 c-47 0 -86 -3 -86 -8 0 -4 7 -18 16 -30 20 -29 74 -30 99 -2 21
23 45 26 45 7 0 -27 -48 -60 -88 -61 -92 -2 -142 90 -92 171 32 53 116 61 162
15z m546 -7 c49 -57 14 -164 -58 -179 -39 -7 -92 14 -114 45 -23 33 -21 100 5
133 40 50 123 51 167 1z m172 22 c0 -7 -15 -19 -33 -27 -32 -15 -32 -16 -35
-92 -3 -70 -5 -78 -22 -78 -19 0 -20 7 -20 106 l0 107 28 -6 c15 -2 36 -1 47
3 23 9 35 4 35 -13z m-625 -44 c32 -116 29 -115 55 -25 20 70 27 82 44 80 15
-2 26 -23 47 -83 15 -44 28 -74 28 -66 3 41 43 151 56 151 20 0 19 -11 -13
-115 -22 -70 -32 -91 -48 -93 -16 -2 -24 10 -45 75 l-25 78 -26 -75 c-18 -56
-29 -76 -44 -78 -17 -2 -24 10 -47 86 -14 48 -29 96 -33 105 -4 13 -1 17 14
17 16 0 24 -12 37 -57z m1430 32 c17 -16 25 -35 25 -60 l0 -35 -80 0 c-63 0
-80 -3 -80 -14 0 -44 75 -61 110 -26 20 20 50 27 50 12 0 -35 -78 -78 -118
-65 -61 19 -82 47 -82 109 0 70 33 103 103 104 38 0 53 -5 72 -25z m185 9 c0
-14 2 -14 22 0 12 9 41 16 64 16 35 0 47 -5 68 -31 43 -51 32 -142 -21 -170
-29 -15 -91 -15 -106 0 -21 21 -27 11 -27 -49 0 -47 -3 -60 -15 -60 -13 0 -15
24 -15 155 0 131 2 155 15 155 8 0 15 -7 15 -16z m-3078 -27 c-3 -23 0 -27 22
-27 22 0 26 4 26 30 0 24 4 30 21 30 18 0 20 -4 14 -30 -6 -26 -4 -30 14 -30
14 0 21 -6 21 -20 0 -14 -7 -20 -24 -20 -21 0 -24 -6 -28 -40 -3 -36 -1 -40
19 -40 35 0 25 -34 -12 -41 -13 -3 -21 -14 -23 -32 -5 -38 -32 -36 -32 4 0 26
-3 30 -22 27 -17 -2 -24 -11 -26 -30 -2 -20 -9 -28 -22 -28 -16 0 -18 5 -13
30 5 26 3 30 -16 30 -14 0 -21 6 -21 20 0 15 7 20 25 20 17 0 25 6 25 18 0 9
3 27 6 40 5 17 2 22 -14 22 -39 0 -36 34 3 41 13 3 21 14 23 32 3 20 8 27 20
25 12 -2 16 -11 14 -31z m2433 -27 c0 -12 -15 -15 -75 -15 -64 0 -75 3 -78 18
-3 16 4 18 75 15 61 -2 78 -6 78 -18z m-1237 -573 c4 -20 -25 -34 -40 -19 -15
15 -1 44 19 40 10 -2 19 -11 21 -21z m1352 -31 c0 -23 4 -25 52 -28 l52 -3 32
-79 31 -79 30 79 c24 62 35 80 52 82 21 3 21 2 8 -30 -7 -18 -36 -88 -63 -155
-36 -91 -54 -123 -66 -123 -22 0 -22 13 1 65 l18 39 -41 99 c-22 54 -42 93
-44 88 -2 -6 -17 -11 -33 -11 l-30 0 3 -72 c3 -71 4 -73 31 -76 40 -5 35 -32
-5 -32 -55 0 -62 11 -66 97 -3 53 -9 81 -18 86 -19 11 -18 27 1 27 9 0 15 9
15 25 0 18 5 25 20 25 15 0 20 -7 20 -24z m-1420 -39 c0 -7 -15 -19 -33 -27
-32 -15 -32 -16 -35 -92 -3 -70 -5 -78 -22 -78 -19 0 -20 7 -20 105 0 98 1
105 20 105 11 0 20 -4 20 -9 0 -6 12 -4 27 4 28 15 43 12 43 -8z m243 -5 c21
-18 23 -52 2 -52 -8 0 -19 9 -25 20 -12 23 -52 27 -69 6 -14 -17 -2 -28 57
-52 68 -27 77 -85 17 -110 -40 -17 -100 -3 -116 28 -18 33 5 47 34 20 26 -25
72 -29 80 -8 7 18 -5 28 -65 54 -41 18 -48 25 -48 50 0 61 81 88 133 44z m665
8 c1 0 11 -15 22 -32 57 -94 -27 -205 -124 -164 l-36 15 0 -60 c0 -52 -2 -59
-20 -59 -19 0 -20 7 -20 155 0 148 1 155 20 155 11 0 20 -4 20 -9 0 -5 17 -3
37 4 24 8 47 10 67 4 17 -5 32 -9 34 -9z m232 -5 c5 -3 10 -1 10 4 0 6 9 11
20 11 19 0 20 -7 20 -105 0 -98 -1 -105 -20 -105 -11 0 -20 4 -20 9 0 6 -16 3
-36 -5 -45 -19 -97 -5 -121 33 -21 32 -21 104 0 137 27 40 99 50 147 21z m200
6 c0 -12 -9 -21 -25 -25 -28 -7 -45 -54 -45 -128 0 -36 -4 -48 -15 -48 -12 0
-15 18 -15 105 0 87 3 105 15 105 8 0 15 -5 15 -11 0 -8 4 -8 13 -1 6 5 21 12
32 15 11 2 21 5 23 6 1 0 2 -8 2 -18z m-2000 -11 c11 -11 20 -27 20 -35 0 -22
-27 -18 -40 5 -7 13 -21 20 -40 20 -55 0 -49 -44 7 -59 68 -19 94 -69 54 -105
-34 -31 -112 -21 -132 16 -18 33 7 49 30 20 22 -30 76 -28 76 3 0 14 -11 23
-40 33 -41 13 -75 44 -75 68 0 28 39 54 80 54 27 0 47 -7 60 -20z m100 -54 c0
-82 13 -106 55 -106 42 0 55 24 55 106 0 67 2 74 20 74 19 0 20 -7 20 -104 l0
-105 -42 -1 c-131 -4 -142 5 -147 125 -3 81 -2 85 18 85 19 0 21 -5 21 -74z
m230 58 c0 -14 2 -14 22 0 12 9 41 16 64 16 35 0 47 -5 68 -31 43 -51 32 -142
-21 -170 -29 -15 -91 -15 -106 0 -21 21 -27 11 -27 -49 0 -47 -3 -60 -15 -60
-13 0 -15 24 -15 155 0 131 2 155 15 155 8 0 15 -7 15 -16z m390 -89 c0 -87
-3 -105 -15 -105 -12 0 -15 18 -15 105 0 87 3 105 15 105 12 0 15 -18 15 -105z
m414 74 c15 -18 26 -43 26 -60 l0 -29 -85 0 c-50 0 -85 -4 -85 -10 0 -21 41
-50 70 -50 18 0 37 8 47 20 10 11 26 20 35 20 17 0 17 -2 3 -30 -26 -49 -128
-59 -164 -16 -37 45 -31 141 12 171 12 8 42 15 68 15 40 0 51 -4 73 -31z
m-1569 -24 c17 -16 25 -35 25 -58 0 -22 6 -37 15 -41 13 -5 15 -20 13 -78 l-3
-73 -95 0 -95 0 -3 70 c-2 50 1 72 11 80 7 5 17 28 20 50 11 71 67 96 112 50z
m1770 -15 c0 -12 -15 -15 -75 -15 -64 0 -75 3 -78 18 -3 16 4 18 75 15 61 -2
78 -6 78 -18z m-598 -566 c9 -23 -13 -40 -32 -24 -12 10 -13 16 -4 26 15 18
28 18 36 -2z m-713 -78 c15 -10 26 -9 56 7 35 16 41 17 73 3 42 -17 57 -57 57
-148 0 -51 -2 -58 -20 -58 -18 0 -20 7 -20 72 0 79 -15 108 -56 108 -41 0 -54
-25 -54 -106 0 -67 -2 -74 -20 -74 -18 0 -20 7 -20 74 0 82 -13 106 -55 106
-42 0 -55 -24 -55 -106 0 -67 -2 -74 -20 -74 -19 0 -20 7 -20 106 l0 107 28
-6 c15 -2 36 -1 47 3 22 9 50 4 79 -14z m398 -11 c44 -44 45 -115 2 -159 -89
-88 -227 22 -169 134 20 39 41 49 96 50 36 0 52 -5 71 -25z m118 -54 c16 -40
31 -75 33 -77 2 -3 17 30 32 72 25 69 46 96 62 80 3 -3 -11 -51 -33 -106 -33
-83 -43 -100 -60 -100 -21 0 -29 15 -102 198 -3 10 2 13 17 10 18 -2 29 -19
51 -77z m200 -26 c0 -98 -1 -105 -20 -105 -19 0 -20 7 -20 105 0 98 1 105 20
105 19 0 20 -7 20 -105z m214 74 c15 -18 26 -43 26 -60 l0 -29 -85 0 c-50 0
-85 -4 -85 -10 0 -21 41 -50 70 -50 18 0 37 8 47 20 10 11 26 20 35 20 17 0
17 -2 3 -30 -26 -49 -128 -59 -164 -16 -37 45 -31 141 12 171 12 8 42 15 68
15 40 0 51 -4 73 -31z m188 19 c9 -7 19 -23 23 -35 5 -18 2 -23 -12 -23 -10 0
-24 9 -31 21 -17 27 -67 23 -67 -6 0 -14 12 -24 41 -35 54 -20 74 -37 74 -65
0 -33 -34 -58 -80 -58 -44 0 -80 24 -80 55 0 24 27 23 40 -3 9 -15 19 -19 43
-17 48 5 44 37 -7 55 -72 25 -95 65 -59 105 19 21 91 25 115 6z m-1610 -31
c-3 -23 0 -27 22 -27 22 0 26 4 26 30 0 24 4 30 21 30 18 0 20 -4 14 -30 -6
-26 -4 -30 14 -30 14 0 21 -6 21 -20 0 -14 -7 -20 -24 -20 -21 0 -24 -6 -28
-40 -3 -36 -1 -40 19 -40 35 0 25 -34 -12 -41 -13 -3 -21 -14 -23 -32 -5 -38
-32 -36 -32 4 0 26 -3 30 -22 27 -17 -2 -24 -11 -26 -30 -2 -20 -9 -28 -22
-28 -16 0 -18 5 -13 30 5 26 3 30 -16 30 -14 0 -21 6 -21 20 0 15 7 20 25 20
17 0 25 6 25 18 0 9 3 27 6 40 5 17 2 22 -14 22 -39 0 -36 34 3 41 13 3 21 14
23 32 3 20 8 27 20 25 12 -2 16 -11 14 -31z m5066 -777 l-3 -80 78 0 c62 0 77
-3 77 -15 0 -12 -15 -15 -77 -15 l-78 0 3 -75 4 -75 -32 0 -32 0 4 75 3 75
-77 0 c-68 0 -78 2 -78 18 0 15 9 17 77 14 l78 -3 -3 80 -4 81 32 0 32 0 -4
-80z m-4550 -27 c5 -17 -26 -29 -40 -15 -6 6 -7 15 -3 22 9 14 37 9 43 -7z
m-129 -18 c49 -25 70 -116 40 -172 -19 -36 -60 -53 -129 -53 l-60 0 0 120 0
120 60 0 c34 0 74 -7 89 -15z m749 -13 c3 -16 10 -22 28 -22 15 0 24 -6 24
-15 0 -9 -9 -15 -25 -15 -24 0 -25 -2 -25 -64 0 -59 2 -65 22 -68 37 -5 34
-28 -4 -28 -49 0 -58 15 -58 91 0 50 -4 68 -15 73 -8 3 -15 10 -15 16 0 5 7
10 15 10 9 0 15 10 15 26 0 33 33 30 38 -4z m247 -69 l42 -92 43 94 c32 71 47
95 61 95 18 0 19 -9 19 -120 0 -113 -1 -120 -20 -120 -18 0 -20 7 -20 73 l-1
72 -34 -72 c-19 -41 -40 -73 -48 -73 -8 0 -30 34 -50 78 l-36 77 -1 -77 c0
-63 -3 -78 -15 -78 -13 0 -15 20 -15 121 0 108 2 120 17 117 10 -2 33 -38 58
-95z m-1405 79 c0 -4 -22 -30 -50 -57 l-50 -49 -50 49 c-27 27 -50 53 -50 57
0 4 45 8 100 8 55 0 100 -4 100 -8z m530 -127 c0 -78 -3 -95 -15 -95 -12 0
-15 17 -15 95 0 78 3 95 15 95 12 0 15 -17 15 -95z m140 79 c0 -8 -6 -14 -14
-14 -32 0 -46 -30 -46 -96 0 -57 -2 -64 -20 -64 -19 0 -20 7 -20 94 l0 94 50
0 c37 1 50 -3 50 -14z m178 -6 c11 -13 22 -36 24 -53 l3 -30 -78 -5 -78 -5 16
-22 c21 -30 67 -30 95 -1 16 17 23 19 32 10 10 -10 7 -18 -14 -38 -52 -53
-153 -23 -158 46 -4 52 1 72 25 95 33 34 102 35 133 3z m206 1 c14 -11 26 -27
26 -35 0 -21 -33 -17 -48 6 -17 28 -66 27 -86 -2 -48 -68 35 -148 89 -88 21
23 45 26 45 7 0 -28 -48 -60 -91 -60 -65 0 -94 39 -90 121 3 63 99 95 155 51z
m697 8 c21 -16 39 -51 39 -76 0 -19 -6 -21 -75 -21 -55 0 -75 -3 -75 -13 0
-39 81 -53 100 -17 11 21 40 28 40 9 0 -48 -68 -78 -123 -55 -43 17 -57 41
-57 96 0 57 34 90 92 90 24 0 50 -6 59 -13z m181 1 c25 -21 30 -48 9 -48 -10
0 -21 7 -25 15 -6 17 -51 20 -61 5 -10 -15 11 -37 43 -45 59 -15 78 -57 42
-90 -38 -35 -130 -12 -130 32 0 18 25 17 40 -3 15 -17 61 -15 68 4 2 7 -17 21
-47 34 -59 24 -75 56 -46 88 21 23 82 27 107 8z m182 -10 c9 -12 16 -26 16
-30 0 -15 -38 -8 -44 8 -7 19 -61 15 -61 -5 0 -15 12 -23 62 -41 54 -20 56
-80 3 -98 -46 -16 -110 10 -110 45 0 18 36 17 44 -2 8 -23 66 -20 66 3 0 13
-12 22 -40 31 -35 10 -70 42 -70 63 0 5 9 17 20 28 29 29 94 27 114 -2z m184
10 c9 -9 12 -9 12 0 0 7 9 12 20 12 19 0 20 -7 20 -94 l0 -95 -42 -1 c-24 0
-56 -1 -71 -2 -73 -2 -111 109 -58 166 19 20 34 26 66 26 22 0 46 -5 53 -12z
m230 0 c9 -9 12 -9 12 0 0 7 9 12 20 12 19 0 20 -7 20 -106 0 -142 -18 -173
-98 -174 -32 0 -49 6 -67 25 -14 13 -25 29 -25 35 0 18 35 11 48 -10 25 -41
102 -14 102 36 0 22 -1 22 -30 7 -100 -49 -180 105 -91 174 21 16 93 17 109 1z
m233 -1 c21 -16 39 -51 39 -76 0 -19 -6 -21 -75 -21 -55 0 -75 -3 -75 -13 0
-39 81 -53 100 -17 11 21 40 28 40 9 0 -48 -68 -78 -123 -55 -43 17 -57 41
-57 96 0 57 34 90 92 90 24 0 50 -6 59 -13z m181 1 c25 -21 30 -48 9 -48 -10
0 -21 7 -25 15 -6 17 -51 20 -61 5 -10 -15 11 -37 43 -45 59 -15 78 -57 42
-90 -38 -35 -130 -12 -130 32 0 18 25 17 40 -3 15 -17 61 -15 68 4 2 7 -17 21
-47 34 -59 24 -75 56 -46 88 21 23 82 27 107 8z m-2333 -622 c9 -10 8 -16 -4
-26 -19 -16 -41 1 -32 24 8 20 21 20 36 2z m2030 0 c9 -10 8 -16 -4 -26 -19
-16 -41 1 -32 24 8 20 21 20 36 2z m-2145 -17 c50 -23 57 -103 13 -134 -12 -8
-41 -15 -64 -15 l-43 0 0 -55 c0 -48 -2 -55 -20 -55 -19 0 -20 7 -20 135 l0
135 55 0 c30 0 65 -5 79 -11z m1106 -90 l65 -100 3 100 c2 93 4 101 22 101 19
0 20 -7 20 -135 0 -128 -1 -135 -20 -135 -14 0 -39 29 -87 102 l-68 101 -3
-101 c-2 -82 -6 -102 -17 -102 -12 0 -15 23 -15 135 0 173 9 176 100 34z
m-600 28 c0 -7 -15 -19 -33 -27 -32 -15 -32 -16 -35 -92 -3 -70 -5 -78 -22
-78 -19 0 -20 7 -20 106 l0 107 28 -6 c15 -2 36 -1 47 3 23 9 35 4 35 -13z
m130 4 c0 -12 -9 -21 -25 -25 -28 -7 -45 -54 -45 -128 0 -36 -4 -48 -15 -48
-12 0 -15 18 -15 105 0 87 3 105 15 105 8 0 15 -5 15 -11 0 -8 4 -8 13 -1 6 5
21 12 32 15 11 2 21 5 23 6 1 0 2 -8 2 -18z m202 -19 c10 -10 21 -35 25 -55
l6 -37 -87 0 c-47 0 -86 -3 -86 -8 0 -4 7 -18 16 -30 20 -29 74 -30 99 -2 21
23 45 26 45 7 0 -27 -48 -60 -88 -61 -92 -2 -142 90 -92 171 32 53 116 61 162
15z m578 13 c5 -3 10 -1 10 4 0 6 9 11 20 11 19 0 20 -7 20 -105 0 -98 -1
-105 -20 -105 -11 0 -20 4 -20 9 0 6 -16 3 -36 -5 -45 -19 -97 -5 -121 33 -21
32 -21 104 0 137 27 40 99 50 147 21z m460 0 c5 -3 10 -1 10 4 0 6 9 11 20 11
19 0 20 -7 20 -105 0 -98 -1 -105 -20 -105 -11 0 -20 4 -20 9 0 6 -16 3 -36
-5 -68 -29 -133 12 -141 88 -9 95 85 154 167 103z m200 6 c0 -12 -9 -21 -25
-25 -28 -7 -45 -54 -45 -128 0 -36 -4 -48 -15 -48 -12 0 -15 18 -15 105 0 87
3 105 15 105 8 0 15 -5 15 -11 0 -8 4 -8 13 -1 6 5 21 12 32 15 11 2 21 5 23
6 1 0 2 -8 2 -18z m254 5 c41 -17 56 -55 56 -142 0 -57 -2 -64 -20 -64 -18 0
-20 7 -20 74 0 54 -4 79 -16 90 -17 17 -51 21 -72 8 -17 -12 -32 -68 -32 -124
0 -36 -4 -48 -15 -48 -12 0 -15 18 -15 105 0 87 3 105 15 105 8 0 15 -5 15
-11 0 -8 4 -8 13 -1 6 5 21 12 32 15 11 2 21 5 23 6 1 0 18 -5 36 -13z m-2214
-101 c0 -98 -1 -105 -20 -105 -19 0 -20 7 -20 105 0 98 1 105 20 105 19 0 20
-7 20 -105z m215 80 c17 -16 25 -35 25 -60 l0 -35 -80 0 c-63 0 -80 -3 -80
-14 0 -44 75 -61 110 -26 20 20 50 27 50 12 0 -35 -78 -78 -118 -65 -61 19
-82 47 -82 109 0 70 33 103 103 104 38 0 53 -5 72 -25z m1228 -55 c15 -41 30
-76 31 -78 2 -2 17 32 34 75 23 61 34 79 51 81 l21 3 -21 -53 c-12 -29 -30
-77 -41 -105 -16 -41 -26 -53 -42 -53 -17 0 -28 18 -63 106 -39 100 -40 105
-20 102 16 -2 28 -20 50 -78z m587 -25 c0 -98 -1 -105 -20 -105 -19 0 -20 7
-20 105 0 98 1 105 20 105 19 0 20 -7 20 -105z m-2160 -454 c0 -4 -9 -20 -20
-34 -38 -48 -53 -99 -53 -177 0 -76 17 -130 60 -188 16 -23 16 -24 -7 -20 -29
4 -66 55 -81 112 -6 23 -9 77 -7 121 5 82 21 129 61 173 20 22 47 30 47 13z
m297 -24 c41 -60 55 -107 55 -188 0 -107 -46 -209 -93 -209 -16 0 -14 6 11 48
63 101 63 224 0 325 -35 57 -35 57 -12 57 9 0 27 -15 39 -33z m-132 -53 c8 -4
23 -20 31 -36 25 -48 11 -91 -50 -154 l-52 -54 63 0 c49 0 63 -3 63 -15 0 -12
-17 -15 -95 -15 -72 0 -95 3 -95 13 0 7 25 35 56 61 63 55 90 101 80 139 -12
49 -77 43 -96 -9 -12 -30 -40 -32 -40 -3 0 31 53 79 88 79 17 0 38 -3 47 -6z
m1745 -134 c0 -133 -1 -140 -20 -140 -11 0 -20 4 -20 9 0 6 -16 3 -36 -5 -41
-17 -89 -7 -119 26 -40 44 -25 143 26 171 27 14 88 14 102 0 20 -20 27 -11 27
34 0 38 3 45 20 45 19 0 20 -7 20 -140z m1910 0 c0 -133 -1 -140 -20 -140 -11
0 -20 4 -20 9 0 6 -16 3 -36 -5 -41 -17 -89 -7 -119 26 -40 44 -25 143 26 171
27 14 88 14 102 0 20 -20 27 -11 27 34 0 38 3 45 20 45 19 0 20 -7 20 -140z
m-3270 70 l0 -60 65 0 65 0 0 60 c0 53 2 60 20 60 19 0 20 -7 20 -135 0 -128
-1 -135 -20 -135 -18 0 -20 7 -20 60 l0 60 -65 0 -65 0 0 -60 c0 -53 -2 -60
-20 -60 -19 0 -20 7 -20 135 0 128 1 135 20 135 18 0 20 -7 20 -60z m1665 35
c29 -28 31 -51 9 -83 -15 -21 -15 -25 0 -41 22 -25 20 -77 -4 -101 -16 -16
-33 -20 -90 -20 l-70 0 0 135 0 135 65 0 c57 0 69 -3 90 -25z m1272 13 c9 -13
93 -239 93 -252 0 -3 -8 -6 -18 -6 -10 0 -22 12 -29 30 -11 28 -14 30 -66 30
-52 0 -56 -2 -66 -30 -6 -20 -17 -30 -30 -30 -20 0 -19 3 10 83 17 45 37 100
45 122 8 22 16 46 19 53 2 6 11 12 18 12 8 0 19 -6 24 -12z m-2544 -76 c23
-23 32 -88 18 -124 -14 -37 -54 -61 -103 -61 -116 0 -137 181 -25 211 38 10
84 -1 110 -26z m527 13 c5 -3 10 -1 10 4 0 6 9 11 20 11 19 0 20 -7 20 -105 0
-98 -1 -105 -20 -105 -11 0 -20 4 -20 9 0 6 -16 3 -36 -5 -68 -29 -133 12
-141 88 -9 95 85 154 167 103z m200 6 c0 -12 -9 -21 -25 -25 -28 -7 -45 -54
-45 -128 0 -36 -4 -48 -15 -48 -12 0 -15 18 -15 105 0 87 3 105 15 105 8 0 15
-5 15 -11 0 -8 4 -8 13 -1 6 5 21 12 32 15 11 2 21 5 23 6 1 0 2 -8 2 -18z
m720 -4 c0 -7 -15 -19 -33 -27 -32 -15 -32 -16 -35 -92 -3 -70 -5 -78 -22 -78
-19 0 -20 7 -20 105 0 98 1 105 20 105 11 0 20 -4 20 -9 0 -6 12 -4 27 4 28
15 43 12 43 -8z m203 -15 c23 -23 32 -88 18 -124 -14 -37 -54 -61 -103 -61
-116 0 -137 181 -25 211 38 10 84 -1 110 -26z m536 13 c16 -9 31 -75 31 -137
0 -51 -2 -58 -20 -58 -18 0 -20 7 -20 68 0 84 -17 115 -63 110 -41 -4 -57 -35
-57 -115 0 -49 -3 -63 -15 -63 -12 0 -15 18 -15 105 0 87 3 105 15 105 8 0 15
-5 15 -11 0 -8 4 -8 13 -1 25 20 81 19 116 -3z m-2089 -57 c12 -40 22 -77 24
-83 1 -5 14 26 27 70 19 63 29 81 45 83 18 3 24 -8 45 -80 l25 -82 23 82 c19
67 27 82 43 82 15 0 18 -4 13 -17 -3 -10 -18 -58 -33 -106 -23 -74 -30 -87
-46 -85 -14 2 -26 22 -44 78 l-26 75 -25 -78 c-21 -65 -29 -77 -45 -75 -16 2
-27 24 -52 106 -30 95 -31 102 -13 102 14 0 23 -16 39 -72z m1650 0 c12 -40
22 -77 24 -83 1 -5 14 26 27 70 19 63 29 81 45 83 18 3 24 -8 45 -80 l25 -82
23 82 c19 67 27 82 43 82 15 0 18 -4 13 -17 -3 -10 -18 -58 -33 -106 -23 -74
-30 -87 -46 -85 -14 2 -26 22 -44 78 l-26 75 -25 -78 c-21 -65 -29 -77 -45
-75 -16 2 -27 24 -52 106 -30 95 -31 102 -13 102 14 0 23 -16 39 -72z m530
-138 c-11 -28 -20 -53 -20 -55 0 -3 -7 -5 -15 -5 -18 0 -18 6 -4 51 6 19 12
40 15 47 2 6 12 12 24 12 l20 0 -20 -50z m680 20 c0 -13 -7 -20 -19 -20 -22 0
-35 15 -26 30 12 19 45 11 45 -10z m68 3 c5 -17 -26 -29 -40 -15 -6 6 -7 15
-3 22 9 14 37 9 43 -7z m67 -3 c0 -8 -10 -16 -22 -18 -18 -3 -23 2 -23 18 0
16 5 21 23 18 12 -2 22 -10 22 -18z m-2345 -486 c0 -40 2 -45 15 -34 25 21 94
16 118 -9 18 -18 23 -36 26 -106 3 -81 2 -85 -18 -85 -19 0 -21 5 -21 74 0 54
-4 79 -16 90 -17 17 -51 21 -72 8 -17 -12 -32 -68 -32 -124 0 -36 -4 -48 -15
-48 -13 0 -15 22 -15 140 0 118 2 140 15 140 11 0 15 -12 15 -46z m-1680 -82
c0 -125 -5 -138 -52 -155 -30 -11 -76 12 -86 43 -16 43 15 59 33 18 6 -13 20
-24 32 -26 33 -5 43 31 43 144 0 77 3 94 15 94 12 0 15 -20 15 -118z m1350 0
c0 -125 -5 -138 -52 -155 -30 -11 -76 12 -86 43 -16 43 15 59 33 18 6 -13 20
-24 32 -26 33 -5 43 31 43 144 0 77 3 94 15 94 12 0 15 -20 15 -118z m-886 44
c15 -10 26 -9 56 7 35 16 41 17 73 3 42 -17 57 -57 57 -148 0 -51 -2 -58 -20
-58 -18 0 -20 7 -20 72 0 79 -15 108 -56 108 -41 0 -54 -25 -54 -106 0 -67 -2
-74 -20 -74 -18 0 -20 7 -20 74 0 82 -13 106 -55 106 -42 0 -55 -24 -55 -106
0 -67 -2 -74 -20 -74 -19 0 -20 7 -20 106 l0 107 28 -6 c15 -2 36 -1 47 3 22
9 50 4 79 -14z m398 -14 c10 -10 21 -35 25 -55 l6 -37 -87 0 c-47 0 -86 -3
-86 -8 0 -4 7 -18 16 -30 20 -29 74 -30 99 -2 21 23 45 26 45 7 0 -27 -48 -60
-88 -61 -92 -2 -142 90 -92 171 32 53 116 61 162 15z m721 0 c23 -23 32 -88
18 -124 -14 -37 -54 -61 -103 -61 -116 0 -137 181 -25 211 38 10 84 -1 110
-26z m466 13 c16 -9 31 -75 31 -137 0 -51 -2 -58 -20 -58 -18 0 -20 7 -20 68
0 84 -17 115 -63 110 -41 -4 -57 -35 -57 -115 0 -49 -3 -63 -15 -63 -12 0 -15
18 -15 105 0 87 3 105 15 105 8 0 15 -5 15 -11 0 -8 4 -8 13 -1 25 20 81 19
116 -3z m204 -3 c21 -18 23 -52 2 -52 -8 0 -19 9 -25 20 -12 23 -52 27 -69 6
-14 -17 -2 -28 57 -52 68 -27 77 -85 17 -110 -40 -17 -100 -3 -116 28 -18 33
5 47 34 20 26 -25 72 -29 80 -8 7 18 -5 28 -65 54 -41 18 -48 25 -48 50 0 61
81 88 133 44z m466 3 c16 -9 31 -75 31 -137 0 -51 -2 -58 -20 -58 -18 0 -20 7
-20 68 0 84 -17 115 -63 110 -41 -4 -57 -35 -57 -115 0 -49 -3 -63 -15 -63
-12 0 -15 18 -15 105 0 87 3 105 15 105 8 0 15 -5 15 -11 0 -8 4 -8 13 -1 25
20 81 19 116 -3z m-2518 5 c13 -7 19 -7 19 0 0 5 9 10 20 10 19 0 20 -7 20
-105 0 -98 -1 -105 -20 -105 -11 0 -20 5 -20 11 0 8 -4 8 -15 -1 -20 -16 -78
-17 -108 -1 -59 32 -64 145 -8 188 20 15 86 17 112 3z m851 -2 c9 -7 19 -23
23 -35 5 -18 2 -23 -12 -23 -10 0 -24 9 -31 21 -17 27 -67 23 -67 -6 0 -14 12
-24 41 -35 54 -20 74 -37 74 -65 0 -33 -34 -58 -80 -58 -44 0 -80 24 -80 55 0
24 27 23 40 -3 9 -15 19 -19 43 -17 48 5 44 37 -7 55 -72 25 -95 65 -59 105
19 21 91 25 115 6z m1419 2 c10 -6 26 -24 34 -40 47 -91 -30 -186 -129 -159
-40 11 -53 25 -66 69 -22 76 23 140 97 140 24 0 53 -5 64 -10z"/>
<path d="M19961 15236 c-40 -42 -29 -115 21 -139 58 -28 118 13 118 81 0 70
-91 109 -139 58z"/>
<path d="M8462 15168 c-21 -21 -13 -28 33 -28 25 0 45 4 45 8 0 15 -24 32 -45
32 -12 0 -26 -5 -33 -12z"/>
<path d="M8650 15165 c-29 -35 -7 -95 34 -95 31 0 46 19 46 57 0 47 -52 72
-80 38z"/>
<path d="M9517 15162 c-34 -37 -13 -92 33 -92 19 0 33 7 40 19 32 61 -29 122
-73 73z"/>
<path d="M10276 15164 c-31 -30 -12 -94 28 -94 48 0 73 61 38 93 -23 21 -46
22 -66 1z"/>
<path d="M10862 15168 c-21 -21 -13 -28 33 -28 25 0 45 4 45 8 0 15 -24 32
-45 32 -12 0 -26 -5 -33 -12z"/>
<path d="M696 14248 c-21 -29 -20 -40 5 -72 16 -20 27 -25 43 -20 46 13 61 67
28 97 -26 23 -58 21 -76 -5z"/>
<path d="M450 13725 c0 -94 3 -97 69 -74 86 30 59 159 -34 159 l-35 0 0 -85z"/>
<path d="M673 13753 c-7 -2 -13 -11 -13 -19 0 -10 14 -14 50 -14 48 0 50 1 40
20 -10 19 -47 26 -77 13z"/>
<path d="M1162 13748 c-22 -22 -15 -76 13 -94 23 -15 27 -15 49 0 33 21 41 52
22 81 -18 27 -63 34 -84 13z"/>
<path d="M1780 13741 c-10 -20 -8 -21 40 -21 44 0 51 3 48 18 -5 27 -73 29
-88 3z"/>
<path d="M1467 12462 c-21 -23 -22 -76 -1 -96 37 -37 104 -6 104 49 0 56 -67
86 -103 47z"/>
<path d="M2123 12468 c-28 -36 -25 -38 38 -38 l61 0 -14 23 c-17 25 -69 35
-85 15z"/>
<path d="M1350 11760 c-33 -33 -24 -40 45 -40 70 0 82 11 47 43 -25 23 -68 21
-92 -3z"/>
<path d="M1820 11760 c-33 -33 -24 -40 45 -40 70 0 82 11 47 43 -25 23 -68 21
-92 -3z"/>
<path d="M2190 11760 c-45 -45 -13 -130 49 -130 34 0 71 39 71 75 0 62 -78 97
-120 55z"/>
<path d="M1100 11760 c-45 -45 -13 -130 48 -130 39 0 66 32 66 77 0 63 -71 96
-114 53z"/>
<path d="M700 11676 c0 -13 -3 -31 -6 -40 -5 -12 0 -16 19 -16 19 0 26 6 31
31 9 47 8 49 -19 49 -20 0 -25 -5 -25 -24z"/>
<path d="M1335 11060 c-42 -46 -11 -130 47 -130 39 0 68 32 68 75 0 66 -74
101 -115 55z"/>
<path d="M1960 11060 c-33 -33 -24 -40 45 -40 70 0 82 11 47 43 -25 23 -68 21
-92 -3z"/>
<path d="M2500 11060 c-26 -26 -27 -90 -2 -113 25 -23 75 -21 96 2 26 29 24
91 -4 113 -29 24 -65 23 -90 -2z"/>
<path d="M3487 11062 c-31 -34 -21 -42 49 -42 68 0 70 3 36 43 -20 22 -64 22
-85 -1z"/>
<path d="M3822 11064 c-17 -12 -22 -25 -22 -59 0 -34 5 -47 22 -59 53 -38 110
-6 110 60 0 63 -59 94 -110 58z"/>
<path d="M700 10976 c0 -13 -3 -31 -6 -40 -5 -12 0 -16 19 -16 19 0 26 6 31
31 9 47 8 49 -19 49 -20 0 -25 -5 -25 -24z"/>
<path d="M2631 10354 c-12 -15 -21 -37 -21 -49 0 -12 9 -34 21 -49 41 -52 119
-21 119 47 0 71 -78 104 -119 51z"/>
<path d="M2871 10354 c-12 -15 -21 -37 -21 -49 0 -12 9 -34 21 -49 42 -53 119
-21 119 49 0 70 -77 102 -119 49z"/>
<path d="M1542 10364 c-17 -12 -22 -25 -22 -59 0 -34 5 -47 22 -59 53 -38 110
-6 110 60 0 63 -59 94 -110 58z"/>
<path d="M2204 10372 c-6 -4 -16 -17 -23 -29 -12 -23 -11 -23 54 -23 48 0 65
4 65 13 0 34 -65 60 -96 39z"/>
<path d="M677 10324 c-4 -4 -7 -20 -7 -36 0 -25 4 -28 31 -28 28 0 30 2 27 33
-2 23 -8 33 -23 35 -12 2 -24 0 -28 -4z"/>
<path d="M1480 9660 c-45 -45 -13 -130 49 -130 34 0 71 39 71 75 0 62 -78 97
-120 55z"/>
<path d="M2024 9672 c-6 -4 -16 -17 -23 -29 -12 -23 -11 -23 54 -23 48 0 65 4
65 13 0 34 -65 60 -96 39z"/>
<path d="M700 9576 c0 -13 -3 -31 -6 -40 -5 -12 0 -16 19 -16 19 0 26 6 31 31
9 47 8 49 -19 49 -20 0 -25 -5 -25 -24z"/>
<path d="M980 8740 l0 -90 43 0 c49 1 72 15 87 55 25 66 -16 125 -87 125 l-43
0 0 -90z"/>
<path d="M1433 8768 c-28 -36 -25 -38 38 -38 l61 0 -14 23 c-17 25 -69 35 -85
15z"/>
<path d="M2348 8769 c-10 -5 -18 -17 -18 -24 0 -11 14 -15 55 -15 58 0 66 7
37 33 -21 19 -49 21 -74 6z"/>
<path d="M2896 8758 c-32 -46 -7 -108 43 -108 35 0 61 28 61 67 0 58 -73 86
-104 41z"/>
<path d="M3127 8762 c-21 -23 -22 -76 -1 -96 37 -37 104 -6 104 49 0 56 -67
86 -103 47z"/>
<path d="M3358 8769 c-10 -5 -18 -17 -18 -24 0 -11 14 -15 55 -15 58 0 66 7
37 33 -21 19 -49 21 -74 6z"/>
<path d="M1090 8091 l0 -51 34 0 c37 0 66 21 66 48 0 30 -16 43 -59 49 l-41 6
0 -52z"/>
<path d="M1900 8060 c-33 -33 -24 -40 45 -40 70 0 82 11 47 43 -25 23 -68 21
-92 -3z"/>
<path d="M2491 8054 c-12 -15 -21 -37 -21 -49 0 -12 9 -34 21 -49 42 -53 119
-21 119 49 0 70 -77 102 -119 49z"/>
<path d="M2950 8060 c-45 -45 -13 -130 49 -130 34 0 71 39 71 75 0 62 -78 97
-120 55z"/>
<path d="M1397 8062 c-31 -34 -21 -42 49 -42 68 0 70 3 36 43 -20 22 -64 22
-85 -1z"/>
<path d="M2920 7360 c-45 -45 -13 -130 49 -130 34 0 71 39 71 75 0 62 -78 97
-120 55z"/>
<path d="M4830 7360 c-45 -45 -13 -130 49 -130 34 0 71 39 71 75 0 62 -78 97
-120 55z"/>
<path d="M3260 7401 c0 -48 12 -57 65 -47 26 5 36 13 41 32 9 34 -5 45 -60 51
l-46 6 0 -42z"/>
<path d="M3260 7276 l0 -46 44 0 c35 0 48 5 60 22 25 35 1 62 -58 66 l-46 3 0
-45z"/>
<path d="M4616 7353 c-9 -26 -16 -50 -16 -55 0 -4 18 -8 41 -8 37 0 40 2 33
22 -11 35 -34 88 -38 88 -2 0 -11 -21 -20 -47z"/>
<path d="M1985 7360 c-42 -46 -11 -130 47 -130 39 0 68 32 68 75 0 66 -74 101
-115 55z"/>
<path d="M2530 7360 c-45 -45 -13 -130 49 -130 34 0 71 39 71 75 0 62 -78 97
-120 55z"/>
<path d="M3635 7360 c-42 -46 -11 -130 47 -130 39 0 68 32 68 75 0 66 -74 101
-115 55z"/>
<path d="M1920 6660 c-33 -33 -24 -40 45 -40 70 0 82 11 47 43 -25 23 -68 21
-92 -3z"/>
<path d="M2635 6660 c-42 -46 -11 -130 47 -130 39 0 68 32 68 75 0 66 -74 101
-115 55z"/>
<path d="M1285 6660 c-42 -46 -11 -130 47 -130 39 0 68 32 68 75 0 66 -74 101
-115 55z"/>
<path d="M3541 6654 c-24 -30 -26 -55 -10 -87 16 -29 28 -37 62 -37 37 0 67
32 67 73 0 71 -78 104 -119 51z"/>
<path d="M8460 13504 l0 -125 33 3 32 3 3 123 3 122 -36 0 -35 0 0 -126z"/>
<path d="M7088 13598 c-2 -13 -11 -24 -23 -27 -37 -7 -42 -41 -6 -41 14 0 17
-6 13 -30 -3 -24 -9 -30 -28 -30 -17 0 -24 -6 -24 -20 0 -14 7 -20 21 -20 18
0 20 -4 15 -25 -5 -20 -3 -25 14 -25 15 0 20 7 20 25 0 20 5 25 26 25 23 0 26
-3 22 -25 -4 -19 -1 -25 12 -25 11 0 20 10 24 25 4 16 13 25 25 25 27 0 36 31
11 37 -14 4 -20 14 -20 34 0 24 4 29 25 29 18 0 25 5 25 20 0 13 -7 20 -20 20
-17 0 -19 5 -14 25 5 21 3 25 -15 25 -16 0 -21 -6 -21 -25 0 -20 -5 -25 -26
-25 -23 0 -26 3 -22 25 4 19 1 25 -13 25 -11 0 -19 -9 -21 -22z m72 -75 c-1
-33 -15 -53 -37 -53 -19 0 -24 4 -19 16 3 9 6 22 6 30 0 8 10 14 25 14 14 0
25 -3 25 -7z"/>
<path d="M7318 13559 c-22 -13 -41 -74 -33 -107 15 -59 88 -95 123 -60 9 9 12
6 12 -14 0 -30 -34 -48 -53 -29 -14 14 -77 14 -77 1 0 -6 11 -22 25 -35 18
-19 35 -25 70 -25 35 0 52 6 70 25 24 23 25 30 25 139 l0 115 -72 0 c-40 0
-81 -4 -90 -10z m92 -53 c28 -34 -11 -94 -44 -67 -19 16 -21 67 -3 74 22 9 34
7 47 -7z"/>
<path d="M7539 13557 c-74 -57 -34 -177 58 -177 41 0 83 28 83 55 0 18 -42 20
-70 3 -16 -10 -23 -10 -37 5 -16 16 -14 17 50 17 l67 0 0 30 c0 47 -39 80 -92
80 -24 0 -50 -6 -59 -13z m86 -47 c4 -6 -7 -10 -24 -10 -17 0 -31 5 -31 10 0
6 11 10 24 10 14 0 28 -4 31 -10z"/>
<path d="M7710 13474 l0 -94 30 0 c29 0 29 0 32 67 3 58 6 68 22 71 29 6 46
-25 46 -85 0 -53 0 -53 31 -53 l31 0 -4 74 c-5 103 -17 115 -114 114 l-74 0 0
-94z"/>
<path d="M7949 13557 c-74 -57 -34 -177 58 -177 41 0 83 28 83 55 0 18 -42 20
-70 3 -16 -10 -23 -10 -37 5 -16 16 -14 17 50 17 l67 0 0 30 c0 47 -39 80 -92
80 -24 0 -50 -6 -59 -13z m86 -47 c4 -6 -7 -10 -24 -10 -17 0 -31 5 -31 10 0
6 11 10 24 10 14 0 28 -4 31 -10z"/>
<path d="M8120 13475 l0 -95 30 0 c30 0 30 1 30 53 0 55 12 77 42 77 14 0 18
-8 18 -40 0 -53 34 -90 83 -90 18 0 38 5 45 12 9 9 12 9 12 0 0 -7 13 -12 30
-12 l30 0 0 95 0 95 -30 0 c-17 0 -30 -5 -30 -12 0 -9 -3 -9 -12 0 -7 7 -29
12 -49 12 -29 0 -43 -6 -58 -26 l-21 -27 0 27 c0 28 -26 36 -48 14 -9 -9 -12
-9 -12 0 0 7 -13 12 -30 12 l-30 0 0 -95z m250 25 c15 -27 4 -57 -22 -66 -36
-11 -64 46 -36 74 18 18 46 14 58 -8z"/>
<path d="M7102 13180 c-32 -13 -53 -66 -40 -102 12 -34 35 -48 78 -48 66 0 99
49 74 108 -18 45 -63 61 -112 42z m76 -26 c43 -30 17 -104 -36 -104 -57 0 -85
73 -40 104 12 9 29 16 38 16 9 0 26 -7 38 -16z"/>
<path d="M7410 13140 c0 -5 9 -10 20 -10 19 0 20 -7 20 -115 0 -96 3 -115 15
-115 13 0 15 21 15 125 l0 125 -35 0 c-19 0 -35 -4 -35 -10z"/>
<path d="M7560 13141 c0 -5 9 -11 20 -14 18 -5 20 -14 20 -116 0 -67 4 -111
10 -111 6 0 10 48 10 125 l0 125 -30 0 c-16 0 -30 -4 -30 -9z"/>
<path d="M10956 13123 c-11 -11 -6 -23 9 -23 8 0 15 4 15 9 0 13 -16 22 -24
14z"/>
<path d="M11266 13123 c-11 -11 -6 -23 9 -23 8 0 15 4 15 9 0 13 -16 22 -24
14z"/>
<path d="M8550 13010 c0 -67 4 -110 10 -110 6 0 10 43 10 110 0 67 -4 110 -10
110 -6 0 -10 -43 -10 -110z"/>
<path d="M10760 13010 c0 -67 4 -110 10 -110 6 0 10 20 10 44 0 85 31 121 76
91 21 -13 24 -23 24 -75 0 -33 4 -60 10 -60 17 0 12 136 -5 150 -17 14 -51 17
-82 6 -21 -7 -23 -4 -23 28 0 20 -4 36 -10 36 -6 0 -10 -43 -10 -110z"/>
<path d="M11680 13010 c0 -91 3 -110 15 -110 12 0 15 13 15 59 0 60 15 91 45
91 30 0 45 -31 45 -91 0 -46 3 -59 15 -59 18 0 21 82 5 125 -12 32 -51 48 -85
35 -24 -9 -25 -8 -25 25 0 24 -5 35 -15 35 -12 0 -15 -19 -15 -110z"/>
<path d="M13220 13010 c0 -91 3 -110 15 -110 12 0 15 19 15 110 0 91 -3 110
-15 110 -12 0 -15 -19 -15 -110z"/>
<path d="M13560 13010 c0 -67 4 -110 10 -110 6 0 10 25 10 55 0 42 5 60 20 75
11 11 25 20 30 20 6 0 19 -9 30 -20 15 -15 20 -33 20 -75 0 -30 5 -55 10 -55
15 0 12 123 -3 144 -14 19 -49 24 -84 12 -21 -7 -23 -4 -23 28 0 20 -4 36 -10
36 -6 0 -10 -43 -10 -110z"/>
<path d="M8060 13098 c0 -35 54 -198 66 -198 8 0 22 30 35 73 25 85 34 98 43
60 34 -139 56 -166 75 -95 6 20 19 67 30 105 15 52 17 67 6 67 -8 0 -20 -28
-30 -72 -26 -109 -30 -110 -55 -14 -15 55 -28 86 -37 86 -7 0 -15 -6 -18 -12
-2 -7 -14 -47 -26 -88 l-22 -75 -13 45 c-7 25 -18 64 -24 88 -10 38 -30 59
-30 30z"/>
<path d="M9580 13090 c0 -11 -7 -23 -16 -27 -15 -5 -15 -7 0 -15 12 -7 16 -24
16 -68 0 -48 4 -61 19 -70 11 -5 24 -10 30 -10 19 0 12 18 -9 25 -17 5 -20 15
-20 62 0 48 3 56 22 61 l22 5 -22 8 c-13 5 -22 17 -22 29 0 11 -4 20 -10 20
-5 0 -10 -9 -10 -20z"/>
<path d="M9950 13005 l0 -105 50 0 c28 0 50 5 50 10 0 6 -16 10 -35 10 l-35 0
0 95 c0 78 -3 95 -15 95 -12 0 -15 -18 -15 -105z"/>
<path d="M10434 13058 c3 -29 6 -63 6 -75 0 -13 5 -23 10 -23 6 0 10 32 10 75
0 63 -3 75 -16 75 -14 0 -16 -8 -10 -52z"/>
<path d="M10580 13100 c0 -5 14 -10 30 -10 l30 0 0 -95 c0 -78 3 -95 15 -95
12 0 15 17 15 95 0 95 0 95 25 95 14 0 25 5 25 10 0 6 -30 10 -70 10 -40 0
-70 -4 -70 -10z"/>
<path d="M11580 13092 c0 -10 -5 -23 -11 -29 -8 -8 -8 -13 0 -17 6 -4 11 -34
11 -67 0 -54 2 -61 25 -71 33 -15 45 -2 17 18 -18 12 -22 25 -22 66 0 43 3 51
22 56 l22 5 -22 8 c-13 5 -22 17 -22 29 0 11 -4 20 -10 20 -5 0 -10 -8 -10
-18z"/>
<path d="M13960 13092 c0 -10 -5 -23 -11 -29 -8 -8 -8 -13 0 -17 6 -4 11 -34
11 -67 0 -54 2 -61 25 -71 33 -15 45 -2 17 18 -18 12 -22 25 -22 66 0 43 3 51
22 56 l22 5 -22 8 c-13 5 -22 17 -22 29 0 11 -4 20 -10 20 -5 0 -10 -8 -10
-18z"/>
<path d="M8393 13058 c-28 -13 -47 -60 -39 -93 9 -37 42 -65 74 -65 29 0 72
24 72 41 0 14 -20 11 -36 -6 -20 -19 -48 -19 -68 1 -33 32 -20 44 49 44 57 0
65 2 65 19 0 48 -70 83 -117 59z m65 -24 c39 -27 28 -44 -28 -44 -37 0 -50 4
-50 14 0 13 36 46 50 46 3 0 16 -7 28 -16z"/>
<path d="M8653 13058 c-71 -35 -43 -158 37 -158 27 0 70 25 70 41 0 14 -26 11
-40 -6 -29 -35 -80 -2 -80 53 0 40 42 73 69 54 39 -29 70 -26 40 3 -20 20 -69
27 -96 13z"/>
<path d="M8845 13061 c-33 -14 -47 -38 -47 -78 0 -87 119 -113 152 -33 28 67
-40 138 -105 111z m73 -34 c6 -5 12 -25 12 -43 0 -62 -77 -84 -102 -29 -29 64
34 115 90 72z"/>
<path d="M9050 13060 c-8 -5 -23 -7 -32 -4 -16 5 -18 -3 -18 -75 0 -47 4 -81
10 -81 6 0 10 27 10 60 0 52 3 62 24 75 19 13 29 14 45 5 18 -9 21 -20 21 -75
0 -51 3 -65 15 -65 12 0 15 13 15 59 0 60 15 91 45 91 30 0 45 -31 45 -91 0
-46 3 -59 15 -59 11 0 15 12 14 48 -1 70 -12 95 -44 111 -26 12 -33 12 -58 -2
-26 -15 -31 -15 -50 -2 -25 17 -36 18 -57 5z"/>
<path d="M9345 13061 c-54 -23 -66 -99 -20 -138 34 -30 67 -29 102 2 31 27 13
35 -21 10 -27 -20 -49 -19 -70 4 -27 30 -11 41 55 41 51 0 59 2 59 19 0 44
-61 80 -105 62z m49 -21 c16 -6 26 -17 26 -30 0 -17 -6 -20 -44 -20 -54 0 -68
16 -36 42 26 21 22 21 54 8z"/>
<path d="M9715 13059 c-75 -43 -50 -159 35 -159 66 0 105 87 63 139 -22 25
-71 35 -98 20z m70 -34 c14 -13 25 -31 25 -40 0 -17 -43 -65 -58 -65 -23 0
-54 38 -54 65 0 18 8 36 22 47 29 23 36 23 65 -7z"/>
<path d="M10113 13058 c-28 -13 -47 -60 -39 -93 15 -58 69 -81 114 -49 20 14
22 14 22 0 0 -9 7 -16 15 -16 12 0 15 16 15 80 0 64 -3 80 -15 80 -8 0 -15 -5
-15 -11 0 -5 -10 -3 -22 5 -26 18 -44 19 -75 4z m89 -44 c26 -57 -27 -113 -77
-80 -22 14 -26 24 -23 54 5 60 76 79 100 26z"/>
<path d="M11050 13057 c-46 -23 -35 -70 20 -82 39 -9 55 -29 35 -45 -13 -11
-21 -10 -43 1 -15 7 -30 15 -34 17 -5 2 -8 -3 -8 -11 0 -14 40 -37 64 -37 8 0
24 8 36 18 31 25 19 57 -25 72 -46 15 -62 36 -38 48 19 10 44 5 54 -11 4 -5
12 -8 18 -6 9 3 8 9 -1 21 -19 23 -49 29 -78 15z"/>
<path d="M11364 13060 c-24 -9 -36 -33 -28 -54 3 -8 25 -21 50 -31 48 -18 52
-26 28 -46 -14 -11 -21 -10 -46 4 -38 22 -51 12 -19 -14 41 -34 101 -18 101
27 0 20 -9 28 -45 44 -45 19 -58 43 -30 54 18 6 45 -2 45 -15 0 -5 7 -9 15 -9
22 0 18 17 -7 34 -25 18 -34 19 -64 6z"/>
<path d="M11915 13061 c-54 -23 -66 -99 -20 -138 34 -30 67 -29 102 2 31 27
13 35 -21 10 -27 -20 -49 -19 -70 4 -27 30 -11 41 55 41 51 0 59 2 59 19 0 44
-61 80 -105 62z m49 -21 c16 -6 26 -17 26 -30 0 -17 -6 -20 -44 -20 -54 0 -68
16 -36 42 26 21 22 21 54 8z"/>
<path d="M12173 13060 c-48 -19 -58 -95 -18 -135 28 -29 61 -32 93 -9 21 14
22 14 22 -10 0 -28 -31 -66 -54 -66 -7 0 -25 10 -40 21 -29 23 -40 21 -30 -4
3 -9 24 -22 45 -29 35 -10 43 -9 67 9 26 19 27 24 30 122 2 65 -1 101 -8 101
-5 0 -10 -4 -10 -9 0 -6 -12 -3 -27 5 -32 16 -39 16 -70 4z m88 -51 c8 -15 8
-28 -1 -49 -29 -70 -125 -23 -99 48 17 45 76 46 100 1z"/>
<path d="M12373 13058 c-28 -13 -47 -60 -39 -93 9 -37 42 -65 74 -65 29 0 72
24 72 41 0 14 -20 11 -36 -6 -20 -19 -48 -19 -68 1 -33 32 -20 44 49 44 57 0
65 2 65 19 0 48 -70 83 -117 59z m65 -24 c39 -27 28 -44 -28 -44 -37 0 -50 4
-50 14 0 13 36 46 50 46 3 0 16 -7 28 -16z"/>
<path d="M12582 13060 c-12 -5 -29 -7 -37 -4 -13 5 -15 -7 -15 -75 0 -47 4
-81 10 -81 6 0 10 20 10 44 0 85 31 121 76 91 21 -13 24 -23 24 -75 0 -33 4
-60 10 -60 15 0 13 135 -2 148 -21 16 -52 21 -76 12z"/>
<path d="M12753 13060 c-48 -19 -58 -95 -18 -135 29 -30 74 -32 106 -6 27 21
18 42 -9 23 -31 -22 -43 -25 -68 -14 -14 7 -24 20 -24 32 0 18 6 20 65 20 36
0 65 2 65 4 0 23 -26 66 -46 75 -29 13 -41 13 -71 1z m67 -28 c32 -26 18 -42
-36 -42 -48 0 -57 15 -28 44 20 21 37 20 64 -2z"/>
<path d="M13053 13060 c-48 -19 -58 -95 -18 -135 28 -29 61 -32 93 -9 20 14
22 14 22 0 0 -9 5 -16 10 -16 6 0 10 33 10 80 0 47 -4 80 -10 80 -5 0 -10 -4
-10 -9 0 -6 -12 -3 -27 5 -32 16 -39 16 -70 4z m88 -51 c8 -15 8 -28 -1 -49
-29 -70 -125 -23 -99 48 17 45 76 46 100 1z"/>
<path d="M13420 13063 c-35 -13 -50 -37 -50 -79 0 -66 55 -103 109 -73 29 17
39 39 17 39 -9 0 -16 -4 -16 -10 0 -5 -11 -12 -25 -16 -55 -14 -88 63 -45 106
24 24 43 25 64 5 16 -17 36 -20 36 -6 0 22 -60 45 -90 34z"/>
<path d="M13783 13060 c-48 -19 -58 -95 -18 -135 28 -29 61 -32 93 -9 20 14
22 14 22 0 0 -9 5 -16 10 -16 6 0 10 33 10 80 0 47 -4 80 -10 80 -5 0 -10 -4
-10 -9 0 -6 -12 -3 -27 5 -32 16 -39 16 -70 4z m88 -51 c8 -15 8 -28 -1 -49
-29 -70 -125 -23 -99 48 17 45 76 46 100 1z"/>
<path d="M10294 13021 l25 -38 -26 -37 c-13 -21 -22 -40 -19 -43 8 -8 34 16
41 38 9 26 18 24 38 -11 10 -16 25 -30 33 -30 10 0 7 11 -12 40 l-27 41 22 39
c25 45 13 54 -17 13 l-19 -26 -18 26 c-9 15 -24 27 -31 27 -10 0 -8 -11 10
-39z"/>
<path d="M10950 12980 c0 -64 3 -80 15 -80 12 0 15 16 15 80 0 64 -3 80 -15
80 -12 0 -15 -16 -15 -80z"/>
<path d="M11260 12980 c0 -64 3 -80 15 -80 12 0 15 16 15 80 0 64 -3 80 -15
80 -12 0 -15 -16 -15 -80z"/>
<path d="M12910 12978 c0 -45 4 -78 10 -78 6 0 10 23 10 51 0 56 13 89 35 89
8 0 15 4 15 9 0 5 -16 9 -35 8 l-35 -1 0 -78z"/>
<path d="M7064 13001 c-28 -5 -51 -29 -57 -59 -9 -46 5 -52 133 -52 128 0 142
6 133 52 -9 46 -33 59 -115 61 -42 1 -84 0 -94 -2z m172 -32 c8 -6 14 -22 14
-35 0 -24 -1 -24 -111 -24 l-110 0 3 27 c2 16 12 32 24 38 27 13 162 9 180 -6z"/>
<path d="M10432 12918 c6 -18 28 -21 28 -4 0 9 -7 16 -16 16 -9 0 -14 -5 -12
-12z"/>
<path d="M14052 12918 c6 -18 28 -21 28 -4 0 9 -7 16 -16 16 -9 0 -14 -5 -12
-12z"/>
<path d="M8590 4666 c-18 -22 -5 -48 22 -44 17 2 23 10 23 28 0 29 -26 38 -45
16z"/>
<path d="M10564 4665 c-4 -8 -3 -22 0 -31 8 -21 50 -14 54 10 6 31 -43 50 -54
21z"/>
<path d="M8370 4526 l0 -126 25 0 c23 0 25 4 25 44 l0 44 48 7 c61 9 82 28 82
75 0 55 -26 74 -111 78 l-69 4 0 -126z m125 44 c0 -22 -5 -25 -37 -28 -36 -3
-38 -2 -38 28 0 30 2 31 38 28 32 -3 37 -6 37 -28z"/>
<path d="M9480 4525 l0 -125 25 0 c23 0 24 3 27 78 l3 77 53 -77 c42 -62 58
-78 77 -78 l25 0 0 125 0 125 -25 0 c-25 0 -25 -1 -25 -82 l0 -83 -55 83 c-45
66 -60 82 -80 82 l-25 0 0 -125z"/>
<path d="M8590 4500 l0 -100 25 0 25 0 0 100 0 100 -25 0 -25 0 0 -100z"/>
<path d="M8705 4577 c-20 -16 -28 -35 -32 -69 -5 -42 -3 -50 25 -78 42 -41
101 -42 140 -2 l27 27 -23 3 c-13 2 -37 -2 -53 -8 -23 -10 -32 -10 -44 0 -27
23 -16 30 49 30 36 0 67 4 70 9 12 18 -19 85 -44 98 -39 20 -86 16 -115 -10z
m86 -27 c31 -17 22 -30 -21 -30 -42 0 -52 12 -22 29 21 13 20 13 43 1z"/>
<path d="M8900 4500 l0 -100 25 0 c24 0 25 3 25 58 0 64 5 76 38 86 15 5 22
15 22 32 0 26 -11 30 -41 14 -13 -7 -19 -7 -19 0 0 5 -11 10 -25 10 l-25 0 0
-100z"/>
<path d="M9040 4500 l0 -100 25 0 c24 0 25 3 25 60 0 57 2 62 30 78 19 11 30
25 30 40 0 24 -19 29 -39 10 -11 -10 -14 -10 -18 0 -3 6 -16 12 -29 12 -24 0
-24 -1 -24 -100z"/>
<path d="M9205 4577 c-20 -16 -28 -35 -32 -69 -5 -42 -3 -50 25 -78 42 -41
101 -42 140 -2 l27 27 -23 3 c-13 2 -37 -2 -53 -8 -23 -10 -32 -10 -44 0 -27
23 -16 30 49 30 36 0 67 4 70 9 12 18 -19 85 -44 98 -39 20 -86 16 -115 -10z
m86 -27 c31 -17 22 -30 -21 -30 -42 0 -52 12 -22 29 21 13 20 13 43 1z"/>
<path d="M9755 4575 c-20 -19 -25 -34 -25 -75 0 -41 5 -56 25 -75 26 -27 72
-33 106 -15 13 7 19 7 19 0 0 -5 11 -10 25 -10 l25 0 0 100 c0 99 0 100 -24
100 -13 0 -26 -6 -29 -12 -4 -10 -7 -10 -18 0 -22 21 -77 15 -104 -13z m110
-49 c23 -35 5 -76 -33 -76 -35 0 -52 16 -52 50 0 52 57 69 85 26z"/>
<path d="M9960 4593 c0 -5 14 -50 32 -100 32 -91 33 -93 64 -93 25 0 34 6 42
28 21 51 62 164 62 169 0 2 -12 3 -27 1 -25 -3 -31 -11 -52 -72 l-25 -70 -24
72 c-21 63 -27 72 -48 72 -13 0 -24 -3 -24 -7z"/>
<path d="M10214 4585 c-51 -35 -55 -127 -7 -165 29 -22 82 -27 102 -7 11 10
14 10 18 0 3 -7 16 -13 29 -13 24 0 24 1 24 100 0 99 0 100 -24 100 -13 0 -26
-5 -28 -11 -3 -9 -9 -9 -25 0 -29 15 -64 14 -89 -4z m95 -49 c18 -21 9 -66
-14 -82 -18 -12 -24 -11 -43 2 -24 17 -30 62 -10 82 16 16 53 15 67 -2z"/>
<path d="M10427 4593 c-4 -3 -7 -48 -7 -100 0 -93 0 -93 25 -93 23 0 25 4 25
43 0 62 10 87 36 98 17 6 24 16 24 34 0 27 -18 33 -39 13 -11 -10 -14 -10 -18
0 -5 13 -35 17 -46 5z"/>
<path d="M10560 4500 l0 -100 25 0 25 0 0 100 0 100 -25 0 -25 0 0 -100z"/>
<path d="M10660 4500 l0 -100 25 0 c24 0 25 2 25 63 0 68 10 87 47 87 29 0 43
-33 43 -101 0 -46 2 -49 25 -49 24 0 25 2 25 68 0 37 -6 78 -13 92 -17 33 -59
47 -97 33 -17 -6 -30 -7 -30 -2 0 5 -11 9 -25 9 l-25 0 0 -100z"/>
<path d="M10960 4590 c0 -5 7 -10 15 -10 12 0 15 -17 15 -90 0 -53 4 -90 10
-90 6 0 10 40 10 100 l0 100 -25 0 c-14 0 -25 -4 -25 -10z"/>
<path d="M11136 4578 c-18 -25 -21 -103 -7 -141 17 -45 101 -43 116 3 12 38 7
110 -9 135 -22 33 -78 35 -100 3z m84 -17 c5 -11 10 -36 10 -56 0 -49 -16 -75
-46 -75 -27 0 -44 30 -44 78 0 58 57 95 80 53z"/>
<path d="M11306 4584 c-9 -8 -16 -20 -16 -25 0 -15 27 -10 34 6 7 20 55 19 62
0 8 -20 -13 -45 -37 -45 -29 0 -22 -17 11 -29 32 -11 40 -37 18 -59 -18 -18
-35 -15 -58 10 -11 12 -23 19 -26 15 -11 -11 5 -37 30 -48 58 -27 115 25 83
75 -10 15 -13 27 -7 31 14 9 12 59 -2 73 -17 17 -74 15 -92 -4z"/>
<path d="M11530 4495 c0 -57 4 -95 10 -95 6 0 10 18 10 40 0 39 1 40 35 40 36
0 75 28 75 53 0 7 -7 23 -16 35 -12 18 -25 22 -65 22 l-49 0 0 -95z m97 59
c10 -26 -11 -49 -43 -49 -25 0 -29 4 -32 33 -3 31 -2 32 33 32 24 0 38 -5 42
-16z"/>
<path d="M11690 4495 c0 -57 4 -95 10 -95 6 0 10 29 10 67 0 75 6 74 41 -9 13
-32 29 -58 34 -58 6 0 24 30 42 68 l31 67 1 -67 c1 -38 5 -68 11 -68 6 0 10
38 10 95 0 120 -14 124 -60 18 l-34 -76 -34 76 c-48 106 -62 102 -62 -18z"/>
<path d="M7671 4550 c-76 -18 -131 -86 -131 -162 0 -121 93 -196 214 -174 50
9 111 70 125 124 33 122 -84 242 -208 212z"/>
<path d="M11055 4541 c-7 -12 12 -24 25 -16 11 7 4 25 -10 25 -5 0 -11 -4 -15
-9z"/>
<path d="M11052 4418 c5 -15 28 -18 29 -3 0 6 -7 12 -17 13 -10 3 -15 -1 -12
-10z"/>
<path d="M8930 4010 c0 -123 1 -130 20 -130 19 0 20 7 20 130 0 123 -1 130
-20 130 -19 0 -20 -7 -20 -130z"/>
<path d="M7561 4115 c-79 -22 -168 -73 -207 -119 -35 -41 -63 -110 -50 -124 9
-9 738 -15 785 -7 31 6 33 8 27 38 -15 76 -99 153 -214 198 -75 29 -260 36
-341 14z"/>
<path d="M8360 4123 c0 -4 14 -61 32 -126 28 -104 34 -118 52 -115 16 2 26 21
46 85 14 45 27 84 30 87 4 3 17 -35 30 -84 20 -76 27 -90 45 -90 17 0 25 17
54 120 19 66 32 123 28 126 -17 17 -35 -11 -51 -82 -26 -112 -30 -115 -50 -42
-32 116 -37 128 -55 128 -14 0 -23 -19 -41 -82 -13 -46 -26 -89 -30 -96 -4 -8
-18 27 -32 80 -17 66 -30 94 -41 96 -10 2 -17 0 -17 -5z"/>
<path d="M10570 4005 l0 -125 60 0 c47 0 60 3 60 15 0 11 -11 15 -40 15 l-40
0 0 110 c0 103 -1 110 -20 110 -19 0 -20 -7 -20 -125z"/>
<path d="M11140 4040 c0 -73 3 -90 15 -90 12 0 15 17 15 90 0 73 -3 90 -15 90
-12 0 -15 -17 -15 -90z"/>
<path d="M10130 4100 c0 -11 -4 -20 -10 -20 -5 0 -10 -7 -10 -15 0 -8 5 -15
10 -15 6 0 10 -26 10 -57 0 -77 16 -107 58 -111 23 -2 32 1 32 12 0 8 -10 16
-22 18 -21 3 -23 9 -26 71 -3 66 -3 67 23 67 16 0 25 6 25 15 0 9 -9 15 -25
15 -18 0 -25 5 -25 20 0 13 -7 20 -20 20 -13 0 -20 -7 -20 -20z"/>
<path d="M8739 4051 c-24 -24 -29 -38 -29 -76 0 -61 32 -95 88 -95 38 0 92 30
92 51 0 15 -36 10 -50 -6 -18 -22 -57 -18 -82 8 l-23 22 75 3 c41 2 79 7 84
12 15 15 -14 80 -44 95 -44 23 -78 19 -111 -14z m109 -28 c21 -28 14 -33 -43
-33 -59 0 -68 10 -38 42 20 22 60 17 81 -9z"/>
<path d="M9064 4071 c-64 -28 -73 -134 -15 -178 39 -30 141 1 141 43 0 20 -24
17 -45 -6 -22 -24 -58 -26 -79 -4 -27 26 -24 81 6 107 26 22 43 22 68 -3 20
-20 50 -27 50 -11 0 39 -80 71 -126 52z"/>
<path d="M9269 4065 c-84 -46 -48 -185 48 -185 45 0 69 14 88 50 48 93 -44
185 -136 135z m99 -43 c31 -39 -1 -112 -50 -112 -66 0 -81 111 -18 133 21 7
53 -2 68 -21z"/>
<path d="M9460 3980 c0 -82 3 -100 15 -100 12 0 15 14 15 65 0 52 4 69 20 85
47 47 80 14 80 -81 0 -62 2 -69 20 -69 17 0 19 8 22 72 3 67 5 73 30 87 24 14
28 14 47 -3 17 -16 21 -31 21 -88 0 -61 2 -68 20 -68 18 0 20 7 20 60 0 87
-19 127 -64 136 -26 4 -43 1 -61 -10 -23 -15 -28 -15 -47 -1 -27 18 -69 20
-87 3 -11 -10 -14 -10 -18 0 -3 6 -11 12 -19 12 -11 0 -14 -20 -14 -100z"/>
<path d="M9839 4051 c-24 -24 -29 -38 -29 -76 0 -61 32 -95 88 -95 38 0 92 30
92 51 0 15 -36 10 -50 -6 -18 -22 -57 -18 -82 8 l-23 22 75 3 c41 2 79 7 84
12 15 15 -14 80 -44 95 -44 23 -78 19 -111 -14z m109 -28 c21 -28 14 -33 -43
-33 -59 0 -68 10 -38 42 20 22 60 17 81 -9z"/>
<path d="M10283 4056 c-37 -31 -48 -75 -29 -121 27 -64 106 -76 158 -25 27 28
30 36 25 77 -6 56 -31 83 -84 90 -32 4 -44 0 -70 -21z m105 -28 c17 -15 15
-78 -5 -100 -35 -39 -103 -6 -103 50 0 60 60 88 108 50z"/>
<path d="M10760 4067 c-82 -42 -51 -187 41 -187 17 0 39 5 50 10 13 7 19 7 19
0 0 -5 9 -10 20 -10 19 0 20 7 20 94 0 96 -8 118 -35 96 -10 -8 -19 -8 -34 -1
-26 14 -50 14 -81 -2z m87 -39 c44 -41 21 -118 -35 -118 -58 0 -83 72 -40 117
27 29 45 29 75 1z"/>
<path d="M10940 4075 c0 -3 13 -26 29 -51 l29 -47 -30 -46 c-25 -40 -27 -46
-12 -50 9 -1 21 3 25 10 20 35 40 54 45 42 12 -29 41 -55 57 -52 14 3 12 11
-14 51 l-31 47 26 38 c14 21 26 44 26 51 0 21 -23 8 -46 -26 l-22 -32 -26 35
c-23 30 -56 47 -56 30z"/>
<path d="M11135 3910 c-4 -7 -3 -16 3 -22 14 -14 45 -2 40 15 -6 16 -34 21
-43 7z"/>
<path d="M11236 3434 c-9 -8 -16 -22 -16 -31 0 -9 -8 -22 -17 -29 -17 -13 -17
-15 0 -25 14 -8 17 -24 17 -89 0 -64 3 -80 15 -80 12 0 15 16 15 85 0 78 2 85
20 85 11 0 20 7 20 15 0 9 -9 15 -21 15 -15 0 -19 4 -15 16 3 9 6 18 6 20 0 2
7 4 15 4 8 0 15 7 15 15 0 20 -34 19 -54 -1z"/>
<path d="M10890 3310 c0 -123 1 -130 20 -130 18 0 20 7 20 69 0 61 3 72 22 85
52 37 78 8 78 -85 0 -62 2 -69 20 -69 18 0 20 7 20 68 0 37 -6 78 -13 92 -17
33 -59 47 -97 33 l-30 -11 0 39 c0 32 -3 39 -20 39 -19 0 -20 -7 -20 -130z"/>
<path d="M11990 3310 c0 -109 2 -130 15 -130 12 0 15 14 15 65 0 52 4 69 20
85 23 23 39 25 64 7 14 -10 20 -32 24 -85 3 -52 9 -72 18 -72 11 0 14 18 14
75 0 68 -3 79 -26 102 -25 25 -52 27 -96 8 -16 -6 -18 -1 -18 34 0 30 -4 41
-15 41 -13 0 -15 -21 -15 -130z"/>
<path d="M13110 3309 c0 -119 2 -130 18 -127 15 3 17 19 20 131 2 122 2 127
-18 127 -19 0 -20 -6 -20 -131z"/>
<path d="M14060 3310 c0 -104 3 -130 14 -130 10 0 15 19 18 71 3 55 8 74 23
85 26 19 41 18 65 -6 16 -16 20 -33 20 -85 0 -51 3 -65 15 -65 12 0 15 15 15
79 0 75 -2 81 -27 101 -27 21 -55 23 -95 5 -16 -6 -18 -1 -18 34 0 30 -4 41
-15 41 -13 0 -15 -21 -15 -130z"/>
<path d="M8382 3423 c2 -5 20 -41 41 -80 27 -53 37 -85 37 -118 0 -33 4 -45
15 -45 11 0 15 11 15 40 0 27 13 67 41 121 22 45 38 83 35 86 -14 14 -38 -12
-62 -64 l-26 -58 -31 63 c-22 43 -37 62 -50 62 -10 0 -17 -3 -15 -7z"/>
<path d="M15190 3340 c0 -73 3 -90 15 -90 12 0 15 17 15 90 0 73 -3 90 -15 90
-12 0 -15 -17 -15 -90z"/>
<path d="M13720 3404 c0 -9 -8 -23 -17 -30 -17 -13 -17 -15 0 -25 13 -8 17
-24 17 -77 0 -75 10 -92 52 -92 34 0 39 27 6 32 -21 3 -23 8 -23 68 0 60 2 65
23 68 31 5 29 32 -3 32 -18 0 -25 5 -25 20 0 11 -7 20 -15 20 -8 0 -15 -7 -15
-16z"/>
<path d="M13940 3404 c0 -9 -8 -23 -17 -30 -17 -13 -17 -15 0 -25 13 -8 17
-24 17 -77 0 -75 10 -92 52 -92 34 0 39 27 6 32 -21 3 -23 8 -23 68 0 60 2 65
23 68 31 5 29 32 -3 32 -18 0 -25 5 -25 20 0 11 -7 20 -15 20 -8 0 -15 -7 -15
-16z"/>
<path d="M14600 3400 c0 -11 -4 -20 -10 -20 -5 0 -10 -7 -10 -15 0 -8 5 -15
10 -15 6 0 10 -30 10 -69 0 -50 4 -74 16 -85 20 -21 64 -21 64 -1 0 8 -9 15
-20 15 -22 0 -34 43 -28 101 2 26 8 35 26 37 31 5 29 32 -3 32 -18 0 -25 5
-25 20 0 11 -7 20 -15 20 -8 0 -15 -9 -15 -20z"/>
<path d="M8633 3356 c-37 -31 -48 -75 -29 -121 27 -64 106 -76 158 -25 27 28
30 36 25 77 -6 56 -31 83 -84 90 -32 4 -44 0 -70 -21z m105 -28 c17 -15 15
-78 -5 -100 -35 -39 -103 -6 -103 50 0 60 60 88 108 50z"/>
<path d="M8830 3300 c0 -67 3 -83 20 -100 23 -23 79 -27 99 -7 11 10 14 10 18
0 3 -7 11 -13 19 -13 11 0 14 20 14 100 0 82 -3 100 -15 100 -12 0 -15 -13
-15 -57 0 -69 -17 -107 -49 -111 -43 -6 -61 23 -61 100 0 54 -3 68 -15 68 -12
0 -15 -16 -15 -80z"/>
<path d="M9178 3364 c-56 -30 -55 -143 0 -173 37 -20 91 -13 118 14 24 25 25
45 1 45 -7 0 -18 -9 -25 -20 -17 -28 -66 -27 -86 2 -22 31 -20 74 4 98 26 26
48 25 76 -1 12 -11 30 -19 41 -17 16 3 14 8 -14 36 -35 36 -70 41 -115 16z"/>
<path d="M9379 3351 c-39 -40 -41 -109 -4 -146 27 -28 91 -35 114 -12 11 10
14 10 18 0 3 -7 11 -13 19 -13 11 0 14 20 14 100 0 82 -3 100 -15 100 -8 0
-15 -7 -15 -16 0 -14 -2 -14 -22 0 -35 25 -76 20 -109 -13z m106 -26 c14 -13
25 -33 25 -43 0 -30 -38 -72 -65 -72 -27 0 -65 42 -65 72 0 23 43 68 65 68 9
0 27 -11 40 -25z"/>
<path d="M9600 3280 c0 -82 3 -100 15 -100 12 0 15 14 15 65 0 52 4 69 20 85
23 23 39 25 64 7 14 -10 20 -32 24 -85 3 -52 9 -72 18 -72 11 0 14 18 14 75 0
67 -3 79 -25 100 -26 27 -72 33 -94 13 -11 -10 -14 -10 -18 0 -3 6 -11 12 -19
12 -11 0 -14 -20 -14 -100z"/>
<path d="M9940 3367 c-19 -10 -25 -20 -25 -47 0 -31 4 -36 42 -50 50 -18 68
-34 59 -49 -10 -16 -52 -13 -70 4 -16 17 -46 20 -46 5 0 -22 45 -50 79 -50 97
1 96 91 -1 115 -34 9 -43 32 -18 45 20 11 50 4 50 -11 0 -5 9 -9 20 -9 11 0
20 5 20 10 0 18 -40 50 -62 50 -13 0 -34 -6 -48 -13z"/>
<path d="M10128 3364 c-56 -30 -55 -143 0 -173 38 -20 91 -13 120 16 24 24 25
28 9 31 -10 2 -26 -3 -36 -12 -24 -21 -64 -20 -84 2 -10 10 -17 22 -17 25 0 4
34 7 75 7 l75 0 0 33 c-1 71 -74 108 -142 71z m75 -25 c54 -29 43 -49 -29 -49
-58 0 -65 9 -34 40 23 23 33 24 63 9z"/>
<path d="M10350 3367 c-82 -42 -51 -187 41 -187 17 0 39 5 50 10 13 7 19 7 19
0 0 -5 9 -10 20 -10 19 0 20 7 20 94 0 96 -8 118 -35 96 -10 -8 -19 -8 -34 -1
-26 14 -50 14 -81 -2z m87 -39 c44 -41 21 -118 -35 -118 -58 0 -83 72 -40 117
27 29 45 29 75 1z"/>
<path d="M10550 3280 c0 -82 3 -100 15 -100 11 0 15 13 15 53 0 73 9 96 36
103 15 4 24 14 24 25 0 23 -9 24 -38 3 -20 -14 -22 -14 -22 0 0 9 -7 16 -15
16 -12 0 -15 -18 -15 -100z"/>
<path d="M10724 3371 c-64 -28 -73 -134 -15 -178 39 -30 141 1 141 43 0 20
-24 17 -45 -6 -22 -24 -58 -26 -79 -4 -27 26 -24 81 6 107 26 22 43 22 68 -3
20 -20 50 -27 50 -11 0 39 -80 71 -126 52z"/>
<path d="M11353 3356 c-37 -31 -48 -75 -29 -121 27 -64 106 -76 158 -25 27 28
30 36 25 77 -6 56 -31 83 -84 90 -32 4 -44 0 -70 -21z m105 -28 c17 -15 15
-78 -5 -100 -35 -39 -103 -6 -103 50 0 60 60 88 108 50z"/>
<path d="M11550 3280 c0 -82 3 -100 15 -100 11 0 15 13 15 53 0 73 9 96 36
103 15 4 24 14 24 25 0 23 -9 24 -38 3 -20 -14 -22 -14 -22 0 0 9 -7 16 -15
16 -12 0 -15 -18 -15 -100z"/>
<path d="M11810 3368 c-87 -46 -50 -188 49 -188 39 0 81 28 81 55 0 21 -23 18
-43 -5 -36 -43 -97 -12 -97 48 0 33 29 72 54 72 7 0 25 -9 39 -20 29 -23 47
-26 47 -7 0 40 -85 68 -130 45z"/>
<path d="M12229 3351 c-39 -40 -41 -109 -4 -146 27 -28 91 -35 114 -12 11 10
14 10 18 0 3 -7 11 -13 19 -13 11 0 14 20 14 100 0 82 -3 100 -15 100 -8 0
-15 -7 -15 -16 0 -14 -2 -14 -22 0 -35 25 -76 20 -109 -13z m106 -26 c14 -13
25 -33 25 -43 0 -30 -38 -72 -65 -72 -27 0 -65 42 -65 72 0 23 43 68 65 68 9
0 27 -11 40 -25z"/>
<path d="M12450 3280 c0 -82 3 -100 15 -100 12 0 15 14 15 65 0 52 4 69 20 85
23 23 39 25 64 7 14 -10 20 -32 24 -85 3 -52 9 -72 18 -72 11 0 14 18 14 75 0
67 -3 79 -25 100 -26 27 -72 33 -94 13 -11 -10 -14 -10 -18 0 -3 6 -11 12 -19
12 -11 0 -14 -20 -14 -100z"/>
<path d="M12670 3279 c0 -90 2 -100 18 -97 14 3 18 17 22 76 6 90 28 111 78
76 19 -13 22 -24 22 -85 0 -62 2 -69 20 -69 17 0 20 7 20 53 0 82 -15 123 -51
138 -24 9 -39 10 -60 2 -17 -7 -31 -7 -35 -2 -3 5 -12 9 -20 9 -11 0 -14 -20
-14 -101z"/>
<path d="M12930 3367 c-56 -28 -65 -122 -15 -164 38 -33 98 -31 133 4 24 24
25 28 9 31 -10 2 -26 -3 -36 -12 -24 -21 -64 -20 -84 2 -10 10 -17 22 -17 25
0 4 34 7 75 7 l75 0 0 31 c0 20 -10 40 -29 60 -32 32 -69 37 -111 16z m78 -33
c40 -28 28 -44 -33 -44 -41 0 -55 4 -55 14 0 16 37 46 55 46 6 0 21 -7 33 -16z"/>
<path d="M13222 3368 c-30 -15 -39 -54 -18 -77 9 -10 35 -23 57 -30 29 -9 39
-17 37 -29 -4 -23 -56 -29 -64 -8 -8 20 -44 21 -44 2 0 -43 102 -62 135 -26
29 32 13 64 -45 88 -52 22 -65 46 -29 57 13 4 27 1 39 -10 10 -9 27 -15 37
-13 16 3 15 7 -9 31 -28 28 -58 33 -96 15z"/>
<path d="M13510 3367 c-82 -42 -51 -187 41 -187 17 0 39 5 50 10 13 7 19 7 19
0 0 -5 9 -10 20 -10 19 0 20 7 20 94 0 96 -8 118 -35 96 -10 -8 -19 -8 -34 -1
-26 14 -50 14 -81 -2z m87 -39 c44 -41 21 -118 -35 -118 -58 0 -83 72 -40 117
27 29 45 29 75 1z"/>
<path d="M14320 3367 c-56 -28 -65 -122 -15 -164 38 -33 98 -31 133 4 24 24
25 28 9 31 -10 2 -26 -3 -36 -12 -24 -21 -64 -20 -84 2 -10 10 -17 22 -17 25
0 4 34 7 75 7 l75 0 0 31 c0 20 -10 40 -29 60 -32 32 -69 37 -111 16z m78 -33
c40 -28 28 -44 -33 -44 -41 0 -55 4 -55 14 0 16 37 46 55 46 6 0 21 -7 33 -16z"/>
<path d="M14764 3370 c-33 -13 -54 -50 -54 -93 0 -84 102 -129 164 -72 41 38
39 107 -5 148 -30 28 -65 33 -105 17z m81 -45 c30 -29 32 -68 5 -95 -41 -41
-104 -11 -102 50 1 37 8 49 36 60 31 13 35 12 61 -15z"/>
<path d="M14947 3373 c-4 -3 -7 -69 -7 -145 0 -131 1 -138 20 -138 18 0 20 7
20 55 0 52 1 55 19 45 63 -33 141 15 141 88 0 75 -77 126 -134 88 -21 -13 -25
-13 -30 -1 -6 16 -18 19 -29 8z m131 -39 c45 -31 20 -124 -35 -124 -59 0 -85
82 -37 119 32 25 43 26 72 5z"/>
<path d="M15190 3199 c0 -14 5 -19 17 -17 26 5 29 38 4 38 -15 0 -21 -6 -21
-21z"/>
<path d="M11000 2809 c0 -119 2 -130 18 -127 11 2 19 15 22 38 l5 34 31 -38
c22 -26 38 -37 53 -34 19 3 18 7 -20 51 l-42 48 42 43 c22 23 41 45 41 49 0
19 -38 3 -72 -30 l-38 -37 0 67 c0 60 -2 67 -20 67 -19 0 -20 -7 -20 -131z"/>
<path d="M8449 2913 c-80 -49 -78 -177 3 -219 42 -22 111 -14 144 17 34 32 47
87 32 135 -24 72 -116 106 -179 67z m122 -42 c21 -22 29 -39 29 -66 0 -73 -86
-121 -139 -77 -47 38 -43 129 7 156 41 23 71 19 103 -13z"/>
<path d="M8680 2780 c0 -82 3 -100 15 -100 12 0 15 13 15 61 0 69 12 99 40 99
13 0 20 7 20 20 0 24 -17 26 -42 3 -17 -15 -18 -15 -18 0 0 10 -7 17 -15 17
-12 0 -15 -18 -15 -100z"/>
<path d="M8880 2873 c0 -5 16 -48 37 -96 39 -94 39 -86 6 -174 -3 -8 3 -13 13
-13 15 0 31 31 75 140 34 83 53 143 47 146 -16 10 -33 -16 -58 -85 -19 -52
-25 -61 -32 -45 -42 102 -59 134 -72 134 -9 0 -16 -3 -16 -7z"/>
<path d="M9123 2856 c-37 -31 -48 -75 -29 -121 27 -64 106 -76 158 -25 27 28
30 36 25 77 -6 56 -31 83 -84 90 -32 4 -44 0 -70 -21z m105 -28 c17 -15 15
-78 -5 -100 -35 -39 -103 -6 -103 50 0 60 60 88 108 50z"/>
<path d="M9320 2802 c0 -69 3 -81 23 -100 25 -24 66 -28 98 -12 13 7 19 7 19
0 0 -5 7 -10 15 -10 12 0 15 18 15 100 0 82 -3 100 -15 100 -12 0 -15 -14 -15
-63 0 -76 -19 -110 -58 -105 -35 4 -52 39 -52 111 0 44 -3 57 -15 57 -12 0
-15 -15 -15 -78z"/>
<path d="M9659 2851 c-24 -24 -29 -38 -29 -76 0 -62 32 -95 90 -95 30 0 47 6
65 25 14 13 25 29 25 35 0 17 -26 11 -45 -10 -21 -23 -67 -26 -84 -7 -23 28
-23 71 -1 100 25 32 52 35 80 7 24 -24 55 -27 46 -4 -3 9 -6 17 -6 20 0 2 -13
10 -30 19 -44 23 -78 19 -111 -14z"/>
<path d="M9869 2851 c-43 -43 -38 -121 10 -158 20 -15 76 -17 102 -3 13 7 19
7 19 0 0 -5 9 -10 20 -10 20 0 21 5 18 97 -3 84 -6 98 -20 101 -11 2 -18 -3
-18 -13 0 -15 -2 -15 -22 -1 -35 25 -76 20 -109 -13z m105 -22 c48 -37 22
-119 -37 -119 -55 0 -81 87 -36 122 28 23 40 23 73 -3z"/>
<path d="M10090 2780 c0 -79 3 -100 14 -100 10 0 15 19 18 71 3 55 8 74 23 85
26 19 41 18 65 -6 16 -16 20 -33 20 -85 0 -51 3 -65 15 -65 12 0 15 15 15 79
0 74 -2 81 -26 100 -30 24 -55 26 -87 10 -16 -9 -22 -9 -25 0 -2 6 -10 11 -18
11 -11 0 -14 -20 -14 -100z"/>
<path d="M10410 2780 c0 -82 3 -100 15 -100 12 0 15 14 15 65 0 52 4 69 20 85
47 47 80 14 80 -81 0 -62 2 -69 20 -69 17 0 19 8 22 72 3 67 5 73 30 87 24 14
28 14 47 -3 17 -16 21 -31 21 -88 0 -61 2 -68 20 -68 18 0 20 7 20 60 0 87
-19 127 -64 136 -26 4 -43 1 -61 -10 -23 -15 -28 -15 -47 -1 -27 18 -69 20
-87 3 -11 -10 -14 -10 -18 0 -3 6 -11 12 -19 12 -11 0 -14 -20 -14 -100z"/>
<path d="M10798 2864 c-56 -30 -55 -143 0 -173 27 -14 68 -14 95 0 16 9 22 9
25 0 2 -6 10 -11 18 -11 11 0 14 20 14 100 0 82 -3 100 -15 100 -8 0 -15 -6
-15 -14 0 -13 -4 -13 -27 0 -35 18 -61 17 -95 -2z m90 -30 c45 -31 20 -124
-35 -124 -59 0 -85 82 -37 119 32 25 43 26 72 5z"/>
<path d="M11220 2867 c-56 -28 -65 -122 -15 -164 38 -33 98 -31 133 4 24 24
25 28 9 31 -10 2 -26 -3 -36 -12 -24 -21 -64 -20 -84 2 -10 10 -17 22 -17 25
0 4 34 7 75 7 l75 0 0 31 c0 20 -10 40 -29 60 -32 32 -69 37 -111 16z m78 -33
c40 -28 28 -44 -33 -44 -41 0 -55 4 -55 14 0 16 37 46 55 46 6 0 21 -7 33 -16z"/>
<path d="M11470 2877 c0 -2 17 -46 38 -98 l39 -94 -18 -40 c-23 -51 -23 -55
-1 -55 14 0 32 33 76 141 31 78 55 143 52 146 -14 14 -35 -11 -56 -69 -13 -34
-26 -66 -29 -70 -4 -4 -19 26 -35 67 -22 56 -33 75 -47 75 -11 0 -19 -2 -19
-3z"/>
<path d="M11734 2870 c-33 -13 -54 -50 -54 -93 0 -84 102 -129 164 -72 41 38
39 107 -5 148 -30 28 -65 33 -105 17z m81 -45 c30 -29 32 -68 5 -95 -41 -41
-104 -11 -102 50 1 37 8 49 36 60 31 13 35 12 61 -15z"/>
<path d="M11917 2874 c-4 -4 -7 -37 -7 -74 0 -86 22 -120 79 -120 20 0 42 5
49 12 9 9 12 9 12 0 0 -7 9 -12 20 -12 20 0 21 5 18 98 -2 78 -6 97 -18 97
-12 0 -16 -17 -20 -73 -5 -76 -15 -92 -56 -92 -33 0 -43 20 -46 95 -3 63 -13
86 -31 69z"/>
<path d="M12140 2780 c0 -82 3 -100 15 -100 11 0 15 13 15 53 0 73 9 96 36
103 15 4 24 14 24 25 0 23 -9 24 -38 3 -20 -14 -22 -14 -22 0 0 9 -7 16 -15
16 -12 0 -15 -18 -15 -100z"/>
<path d="M12404 2870 c-33 -13 -54 -50 -54 -93 0 -84 102 -129 164 -72 41 38
39 107 -5 148 -30 28 -65 33 -105 17z m81 -45 c30 -29 32 -68 5 -95 -41 -41
-104 -11 -102 50 1 37 8 49 36 60 31 13 35 12 61 -15z"/>
<path d="M12568 2874 c-3 -3 8 -48 25 -100 40 -121 57 -125 88 -21 l22 72 22
-70 c16 -53 26 -71 41 -73 16 -2 23 11 47 87 31 104 32 111 13 111 -9 0 -21
-22 -31 -57 -28 -103 -29 -103 -51 -22 -16 59 -24 74 -39 74 -15 0 -24 -15
-40 -74 -12 -41 -24 -70 -27 -65 -3 5 -13 39 -23 77 -16 60 -30 78 -47 61z"/>
<path d="M12877 2873 c-4 -3 -7 -48 -7 -100 0 -86 1 -93 20 -93 18 0 20 7 20
69 0 61 3 72 22 85 52 37 78 8 78 -85 0 -62 2 -69 20 -69 18 0 20 7 20 65 0
85 -18 122 -64 130 -19 4 -43 2 -54 -4 -14 -7 -23 -8 -27 -1 -7 12 -19 13 -28
3z"/>
<path d="M13086 2712 c-9 -14 12 -35 28 -29 23 9 20 37 -3 37 -11 0 -22 -4
-25 -8z"/>
<path d="M7062 2065 c-65 -28 -62 16 -62 -1043 0 -953 2 -1022 33 -1022 7 0 7
4 -1 12 -9 9 -12 247 -12 1008 l0 997 23 21 23 22 10717 0 c7138 0 10717 3
10717 10 0 7 -3574 10 -10702 10 -9253 -1 -10707 -3 -10736 -15z"/>
</g>
</svg>
